<?xml version="1.0" encoding="UTF-8"?>
<svg width="25px" height="22px" viewBox="0 0 25 22" version="1.1" xmlns="http://www.w3.org/2000/svg" xmlns:xlink="http://www.w3.org/1999/xlink">
    <!-- Generator: Sketch 55 (78076) - https://sketchapp.com -->
    <title>call</title>
    <desc>Created with Sketch.</desc>
    <g id="Desktop" stroke="none" stroke-width="1" fill="none" fill-rule="evenodd">
        <g id="Footer" transform="translate(-1267.000000, -53.000000)" fill="#007589" fill-rule="nonzero">
            <g id="Group-7" transform="translate(1267.000000, 53.000000)">
                <g id="call">
                    <path d="M24.4124059,16.4340888 L20.056511,14.2756225 C18.6045461,13.5485602 18.5553269,14.0256949 17.0295332,15.5252609 C16.6603896,15.8887921 15.9713214,16.8430614 15.1592054,16.6612958 C13.4611447,16.2750439 10.2865094,13.9802535 9.25290724,12.9351014 C8.76071572,12.435246 6.6442922,10.0495728 6.61968262,9.27706905 C6.57046347,8.09559277 9.37595512,7.50485463 8.46540081,5.25550556 L6.52124432,1.23394207 C4.70013571,-2.62857653 -0.394046489,3.55145324 0.0243163006,6.43698184 C1.10713764,13.5485602 14.6177948,25.0452332 22.148325,21.2508767 C23.8217761,20.3874902 26.0858571,17.3656374 24.4124059,16.4340888 Z" id="Shape"></path>
                </g>
            </g>
        </g>
    </g>
</svg>