<?xml version="1.0" encoding="UTF-8"?>
<svg width="19px" height="19px" viewBox="0 0 19 19" version="1.1" xmlns="http://www.w3.org/2000/svg" xmlns:xlink="http://www.w3.org/1999/xlink">
    <!-- Generator: Sketch 55 (78076) - https://sketchapp.com -->
    <title>external-link</title>
    <desc>Created with Sketch.</desc>
    <g id="Desktop" stroke="none" stroke-width="1" fill="none" fill-rule="evenodd">
        <g id="4-BRILLEN-BRILLENFASSUNGEN" transform="translate(-780.000000, -1526.000000)" fill="#007589" fill-rule="nonzero">
            <g id="Group-8" transform="translate(390.000000, 1182.000000)">
                <g id="external-link" transform="translate(390.000000, 344.000000)">
                    <path d="M17.7758347,0 L10.9467409,0 C10.2717011,0 9.72257552,0.549195548 9.72257552,1.22416534 C9.72257552,1.89913514 10.2717011,2.44833068 10.9467409,2.44833068 L14.8204897,2.44833068 L8.35864547,8.91010493 C8.1273132,9.1412973 8,9.44866773 8,9.77576471 C8,10.1028617 8.12724324,10.4101622 8.35850556,10.6411447 C8.58976789,10.8726169 8.89706836,11 9.22416534,11 C9.55112242,11 9.8585628,10.8726868 10.0898951,10.6413545 L16.5516693,4.17951033 L16.5516693,8.05325914 C16.5516693,8.72822893 17.1008649,9.27742448 17.7758347,9.27742448 C18.4508045,9.27742448 19,8.72822893 19,8.05325914 L19,1.22416534 C19,0.549195548 18.4508045,0 17.7758347,0 Z" id="Shape"></path>
                    <path d="M13.0531027,17.0531027 L1.94689729,17.0531027 L1.94689729,5.94689729 L10.2998006,5.94689729 L12.2466978,4 L0.973448647,4 C0.435845408,4 0,4.43584541 0,4.97344865 L0,18.0265514 C0,18.5641546 0.435845408,19 0.973448647,19 L14.0265514,19 C14.5641546,19 15,18.5641546 15,18.0265514 L15,6.75330215 L13.0531027,8.70019945 L13.0531027,17.0531027 Z" id="Shape"></path>
                </g>
            </g>
        </g>
    </g>
</svg>