<?xml version="1.0" encoding="UTF-8"?>
<svg width="231px" height="60px" viewBox="0 0 231 60" version="1.1" xmlns="http://www.w3.org/2000/svg" xmlns:xlink="http://www.w3.org/1999/xlink">
    <!-- Generator: Sketch 55 (78076) - https://sketchapp.com -->
    <title>Group 2</title>
    <desc>Created with Sketch.</desc>
    <g id="Desktop" stroke="none" stroke-width="1" fill="none" fill-rule="evenodd">
        <g id="Header" transform="translate(-390.000000, -20.000000)">
            <g id="Group-2">
                <g transform="translate(390.000000, 20.000000)">
                    <g id="textmarke" transform="translate(74.000000, 9.000000)" fill-rule="nonzero">
                        <polygon id="Shape" fill="#1D1D1B" points="6.58642973 31 6.58642973 35.4905882 2.41357027 35.4905882 2.41357027 31 0 31 0 42 2.41357027 42 2.41357027 37.3929412 6.58642973 37.3929412 6.58642973 42 9 42 9 31"></polygon>
                        <path d="M19.5292553,34.2352941 L20.9920213,38.2470588 L17.9494681,38.2470588 L19.5292553,34.2352941 Z M18.5199468,31 L14,42 L16.5305851,42 L17.2765957,40.0458824 L21.6648936,40.0458824 L22.3962766,42 L25,42 L20.4507979,31 L18.5199468,31 Z" id="Shape" fill="#1D1D1B"></path>
                        <g id="Group">
                            <path d="M38.6311927,38.2467701 L38.6311927,30.0962931 L36.2545872,30.0962931 L36.2545872,38.1592874 C36.2545872,39.3671722 35.2872758,40.3463563 34.0940367,40.3463563 C32.9007976,40.3463563 31.9334862,39.3671722 31.9334862,38.1592874 L31.9334862,30.0962931 L29.5712844,30.0962931 L29.5712844,38.2467701 C29.5712844,40.7672231 31.5897408,42.810454 34.079633,42.810454 C36.5695252,42.810454 38.5879817,40.7672231 38.5879817,38.2467701" id="Shape" fill="#1D1D1B"></path>
                            <path d="M52.4587156,38.8299885 C52.5175347,37.8592014 52.1728831,36.9077056 51.5080734,36.2055057 C50.8544787,35.6361944 50.0352155,35.2983238 49.1746789,35.2431954 L47.7343119,35.039069 C47.349466,34.9757776 46.9900358,34.8039634 46.6972477,34.5433333 C46.4521359,34.3222596 46.3196345,34.0003531 46.337156,33.6685057 C46.337156,32.8082586 46.9565138,32.0938161 48.2240367,32.0938161 C49.1410148,32.017456 50.0482948,32.3288729 50.7302752,32.9540632 L52.1706422,31.4960172 C51.1192016,30.4649526 49.6843874,29.9348704 48.2240367,30.0379713 C45.5737615,30.0379713 43.9029358,31.5835 43.9029358,33.7997299 C43.8443509,34.7003588 44.1633121,35.5842984 44.7815596,36.2346667 C45.4408463,36.821886 46.2687851,37.179612 47.1437615,37.2552989 L48.5841284,37.4594253 C48.9828406,37.4768253 49.3638265,37.6310902 49.6644037,37.8968391 C49.9270779,38.1803139 50.0670737,38.5582181 50.0533028,38.9466322 C50.0533028,39.9381034 49.2899083,40.4046782 47.8783486,40.4046782 C46.8171868,40.4647719 45.7774415,40.0858693 44.9976147,39.3548851 L43.4420183,40.9295747 C44.6156523,42.0824588 46.2179964,42.6761361 47.8495413,42.5625862 C50.4133945,42.5625862 52.4587156,41.2503448 52.4587156,38.8008276" id="Shape" fill="#1D1D1B"></path>
                            <polygon id="Shape" fill="#1D1D1B" points="68.9941284 42.4896839 68.9941284 30.0962931 66.6319266 30.0962931 63.4631193 36.7887241 60.2655046 30.0962931 57.9033028 30.0962931 57.9033028 42.4896839 60.2943119 42.4896839 60.2943119 35.2577759 62.6565138 39.9672644 64.2697248 39.9672644 66.6031193 35.2577759 66.6031193 42.4896839"></polygon>
                            <path d="M84.5068807,42.4896839 L80.0273394,30.0962931 L78.1548624,30.0962931 L73.7041284,42.4896839 L76.1959633,42.4896839 L76.9449541,40.2880345 L81.266055,40.2880345 L81.9862385,42.4896839 L84.5068807,42.4896839 Z M80.6466972,38.3342529 L77.6075229,38.3342529 L79.1631193,33.8288908 L80.6466972,38.3342529 Z" id="Shape" fill="#1D1D1B"></path>
                            <polygon id="Shape" fill="#1D1D1B" points="98.5792661 42.4896839 98.5792661 30.0962931 96.1882569 30.0962931 96.1882569 37.6781322 91.3342202 30.0962931 89.2024771 30.0962931 89.2024771 42.4896839 91.5934862 42.4896839 91.5934862 34.8786839 96.4475229 42.4896839"></polygon>
                            <polygon id="Shape" fill="#1D1D1B" points="114.02 42.4896839 114.02 30.0962931 111.628991 30.0962931 111.628991 37.6781322 106.774954 30.0962931 104.643211 30.0962931 104.643211 42.4896839 107.03422 42.4896839 107.03422 34.8786839 111.888257 42.4896839"></polygon>
                            <path d="M94.4304587,11.2729195 C94.4304587,7.68612644 94.4304587,5.0908046 92.3851376,2.99121839 C89.2954152,-0.0421293756 84.3840344,-0.0421293756 81.2943119,2.99121839 C79.2201835,5.0908046 79.2201835,7.71528736 79.2201835,11.2729195 C79.2201835,14.8305517 79.2201835,17.4550345 81.2366972,19.5546207 C84.3264197,22.5879685 89.2378005,22.5879685 92.3275229,19.5546207 C94.4016514,17.4550345 94.372844,14.8597126 94.372844,11.2729195 M90.3686239,11.2729195 C90.3686239,15.2679655 90.1381651,16.2302759 89.360367,17.1051034 C88.7083462,17.8382089 87.7705382,18.243536 86.7965138,18.2132184 C85.814733,18.240336 84.8693496,17.8362748 84.2038532,17.1051034 C83.426055,16.2302759 83.2244037,15.2679655 83.2244037,11.2729195 C83.2244037,7.27787356 83.426055,6.31556322 84.2038532,5.44073563 C84.8693496,4.70956428 85.814733,4.30550313 86.7965138,4.33262069 C87.7705382,4.30230309 88.7083462,4.70763014 89.360367,5.44073563 C90.1381651,6.31556322 90.3686239,7.27787356 90.3686239,11.2729195" id="Shape" fill="#007589"></path>
                            <path d="M112.838349,7.43825862 C112.86143,5.77541056 112.230928,4.17140362 111.08558,2.97918419 C109.940232,1.78696476 108.373883,1.10421885 106.731193,1.08117816 L98.4058716,1.08117816 L98.4058716,21.4938218 L102.338073,21.4938218 L102.338073,13.8536609 L106.212661,13.8536609 C107.853854,13.9697575 109.473243,13.4200988 110.713552,12.3259523 C111.953862,11.2318059 112.713166,9.68308609 112.823945,8.02147701 C112.823945,7.84651149 112.823945,7.65696552 112.823945,7.482 M108.906147,7.482 C108.933402,8.19366218 108.679998,8.88709007 108.201777,9.40947003 C107.723556,9.93184998 107.059769,10.240308 106.356697,10.2668678 L102.366881,10.2668678 L102.366881,4.71171264 L106.039817,4.71171264 C107.512979,4.60261993 108.798104,5.71488866 108.92055,7.20497126 L108.92055,7.51116092" id="Shape" fill="#007589"></path>
                            <polygon id="Shape" fill="#007589" points="129.071284 4.63881034 129.071284 1.09575862 114.638807 1.09575862 114.638807 4.63881034 119.881743 4.63881034 119.881743 21.4500805 123.813945 21.4500805 123.813945 4.63881034"></polygon>
                            <polygon id="Rectangle-path" fill="#007589" points="132.024037 1.09575862 135.956239 1.09575862 135.956239 21.4500805 132.024037 21.4500805"></polygon>
                            <polygon id="Shape" fill="#007589" points="156.812752 21.4500805 149.654128 9.18791379 156.323028 1.09575862 151.555413 1.09575862 144.468807 9.96067816 144.468807 1.09575862 140.536606 1.09575862 140.536606 21.4500805 144.468807 21.4500805 144.468807 15.3262874 147.061468 12.1914885 152.232385 21.4500805"></polygon>
                            <path d="M14.2884404,6.81129885 C14.2884404,3.32656897 11.9982569,1.09575862 8.08045872,1.09575862 L0,1.09575862 L0,21.5084023 L8.41174312,21.5084023 C11.9982569,21.5084023 14.5765138,19.4525575 14.5765138,15.6762184 C14.6793699,13.7178757 13.5799118,11.8977341 11.8110092,11.097954 C13.351105,10.2811062 14.3082933,8.65870041 14.2884404,6.89878161 M10.3706422,7.07374713 C10.3860963,7.68725686 10.1590826,8.28164933 9.73995517,8.7250818 C9.32082771,9.16851427 8.74423565,9.42432832 8.13807339,9.43578161 C8.01367261,9.45063209 7.88797876,9.45063209 7.76357798,9.43578161 L3.93220183,9.43578161 L3.93220183,4.71171264 L7.76357798,4.71171264 C9.01456277,4.53805735 10.1706505,5.41576548 10.3562385,6.68007471 C10.3634251,6.806334 10.3634251,6.93290738 10.3562385,7.05916667 M10.6299083,15.4575115 C10.6652428,16.0958018 10.4481548,16.7220809 10.0265733,17.1980779 C9.60499185,17.674075 9.01358903,17.9606424 8.38293578,17.9945115 L3.93220183,17.9945115 L3.93220183,12.9788333 L8.02284404,12.9788333 C9.29203152,12.8231781 10.4509484,13.7240988 10.6299083,15.0055172 C10.6370861,15.1366408 10.6370861,15.2680661 10.6299083,15.3991897" id="Shape" fill="#1D1D1B"></path>
                            <polygon id="Rectangle-path" fill="#1D1D1B" points="18.2638532 1.09575862 22.196055 1.09575862 22.196055 21.4500805 18.2638532 21.4500805"></polygon>
                            <path d="M40.7911927,6.81129885 C40.7911927,3.32656897 38.5010092,1.09575862 34.5688073,1.09575862 L26.4883486,1.09575862 L26.4883486,21.5084023 L34.9144954,21.5084023 C38.5010092,21.5084023 41.0648624,19.4525575 41.0648624,15.6762184 C41.1677185,13.7178757 40.0682604,11.8977341 38.2993578,11.097954 C39.8426738,10.2825582 40.8049385,8.66097591 40.7911927,6.89878161 M36.8589908,7.07374713 C36.8705938,7.69614015 36.6344393,8.29710694 36.2036825,8.74137802 C35.7729258,9.1856491 35.1837632,9.43589242 34.5688073,9.43578161 C34.4539958,9.44982961 34.3379308,9.44982961 34.2231193,9.43578161 L30.4061468,9.43578161 L30.4061468,4.71171264 L34.2519266,4.71171264 C35.5074553,4.54771395 36.6586144,5.43958272 36.8301835,6.70923563 C36.8373549,6.82576636 36.8373549,6.94263594 36.8301835,7.05916667 M37.1182569,15.4575115 C37.1495651,16.0996223 36.9272222,16.7279604 36.5002786,17.2039098 C36.073335,17.6798591 35.4768732,17.9643104 34.8424771,17.9945115 L30.4061468,17.9945115 L30.4061468,12.9788333 L34.5688073,12.9788333 C35.1915568,12.904948 35.8177755,13.0847224 36.3094914,13.4785475 C36.8012073,13.8723726 37.1180731,14.4479335 37.1902752,15.0784195 C37.1977604,15.2046699 37.1977604,15.3312611 37.1902752,15.4575115" id="Shape" fill="#1D1D1B"></path>
                            <polygon id="Shape" fill="#1D1D1B" points="57.9747706 21.4500805 57.9747706 17.9070287 48.6555963 17.9070287 48.6555963 12.9642529 56.5920183 12.9642529 56.5920183 9.40662069 48.6555963 9.40662069 48.6555963 4.63881034 57.9747706 4.63881034 57.9747706 1.09575862 44.7233945 1.09575862 44.7233945 21.4500805"></polygon>
                            <path d="M75.9361468,7.32161494 C75.959231,5.68970186 75.3408708,4.11536193 74.2171318,2.94501675 C73.0933928,1.77467157 71.5563507,1.1042158 69.9442202,1.08117816 L61.5324771,1.08117816 L61.5324771,21.4938218 L65.4646789,21.4938218 L65.4646789,13.3870862 L68.3454128,13.3870862 L72.263211,21.5084023 L76.8147706,21.5084023 L72.3208257,12.7601264 C74.573056,11.9863609 76.063009,9.81567728 75.9937615,7.4090977 M72.0759633,7.4090977 C72.087518,8.11678233 71.8208328,8.80011879 71.3345946,9.30873193 C70.8483564,9.81734507 70.1824097,10.1095569 69.4833028,10.1210632 L65.5078899,10.1210632 L65.5078899,4.7262931 L69.1376147,4.7262931 C69.8313038,4.6529993 70.5252489,4.86255439 71.0658934,5.30858786 C71.6065379,5.75462133 71.9493056,6.40035774 72.0183486,7.10290805 C72.0255108,7.20484251 72.0255108,7.30716324 72.0183486,7.4090977" id="Shape" fill="#1D1D1B"></path>
                        </g>
                    </g>
                    <g id="bildmarke">
                        <path d="M16.83,2.46 C17.3104414,2.46549057 17.7043729,2.08047815 17.7098846,1.60003699 C17.7153964,1.11959584 17.3304013,0.725647383 16.8499604,0.720114493 C16.3695195,0.714581603 15.975554,1.09955933 15.97,1.58 L15.97,1.58 C15.9699685,2.05660943 16.3534221,2.44452173 16.83,2.45" id="Shape" fill="#007589" fill-rule="nonzero"></path>
                        <path d="M21.93,2.63 C22.4822847,2.63 22.93,2.18228475 22.93,1.63 C22.93,1.07771525 22.4822847,0.63 21.93,0.63 C21.3777153,0.63 20.93,1.07771525 20.93,1.63 C20.93,2.18228475 21.3777153,2.63 21.93,2.63" id="Shape" fill="#007589" fill-rule="nonzero"></path>
                        <path d="M27.03,3.18 C27.9081073,3.18550532 28.6244201,2.4781278 28.629937,1.60002057 C28.6354539,0.721913334 27.9280858,0.00559123547 27.0499786,6.27597128e-05 C26.1718715,-0.00546571605 25.4555401,0.701892911 25.45,1.58 L25.45,1.58 C25.4499316,2.45590367 26.1541648,3.16905121 27.03,3.18" id="Shape" fill="#007589" fill-rule="nonzero"></path>
                        <path d="M32.15,3.12 C32.9923667,3.11447611 33.6718048,2.42907133 33.6699634,1.58668858 C33.6681221,0.744305818 32.9856942,0.0618778603 32.1433114,0.0600365505 C31.3009287,0.0581952407 30.6155239,0.737633342 30.61,1.58 L30.61,1.58 C30.6045678,1.99007456 30.7650724,2.38494371 31.0550643,2.67493565 C31.3450563,2.9649276 31.7399254,3.12543217 32.15,3.12 L32.15,3.12" id="Shape" fill="#007589" fill-rule="nonzero"></path>
                        <path d="M37.26,2.65 C37.8454218,2.65 38.32,2.17542183 38.32,1.59 C38.32,1.00457817 37.8454218,0.53 37.26,0.53 C36.6745782,0.53 36.2,1.00457817 36.2,1.59 C36.1973017,1.871948 36.3081133,2.14313373 36.5074898,2.3425102 C36.7068663,2.54188667 36.978052,2.65269825 37.26,2.65" id="Shape" fill="#007589" fill-rule="nonzero"></path>
                        <path d="M42.33,2.46 C42.8104877,2.46 43.2,2.07048773 43.2,1.59 C43.2,1.10951227 42.8104877,0.72 42.33,0.72 C41.8495123,0.72 41.46,1.10951227 41.46,1.59 L41.46,1.59 C41.46,2.07048773 41.8495123,2.46 42.33,2.46" id="Shape" fill="#007589" fill-rule="nonzero"></path>
                        <path d="M11.73,8.03 C12.4700314,8.03550201 13.0744094,7.44005561 13.0799252,6.70002432 C13.0854409,5.95999302 12.4900058,5.35560393 11.7499746,5.35007444 C11.0099434,5.34454495 10.4055432,5.93996891 10.4,6.68 L10.4,6.68 C10.3999795,7.41617385 10.9938467,8.01450617 11.73,8.02" id="Shape" fill="#007589" fill-rule="nonzero"></path>
                        <path d="M16.83,8.38 C17.5260427,8.39216676 18.1599825,7.98116652 18.432948,7.34076561 C18.7059135,6.70036469 18.5634102,5.95841211 18.0726213,5.46470188 C17.5818325,4.97099165 16.8407387,4.82408761 16.1987291,5.09324774 C15.5567195,5.36240788 15.1419642,5.99389733 15.15,6.69 L15.15,6.69 C15.1551552,7.60959373 15.8906461,8.35837661 16.81,8.38 L16.81,8.38" id="Shape" fill="#007589" fill-rule="nonzero"></path>
                        <path d="M21.93,8.66 C23.0345695,8.66 23.93,7.7645695 23.93,6.66 C23.93,5.5554305 23.0345695,4.66 21.93,4.66 C20.8254305,4.66 19.93,5.5554305 19.93,6.66 C19.93,7.7645695 20.8254305,8.66 21.93,8.66" id="Shape" fill="#007589" fill-rule="nonzero"></path>
                        <path d="M27.03,8.9 C28.250531,8.90551027 29.2444361,7.92054581 29.2499547,6.70001488 C29.2554733,5.47948395 28.2705156,4.48557211 27.0499847,4.48004518 C25.8294538,4.47451825 24.8355353,5.45946914 24.83,6.68 L24.83,6.68 C24.8299875,7.8966547 25.8133578,8.88449478 27.03,8.89" id="Shape" fill="#007589" fill-rule="nonzero"></path>
                        <path d="M32.15,8.83 C33.3292677,8.82447641 34.2818151,7.86596146 34.2799739,6.68668231 C34.2781327,5.50740315 33.3225968,4.55186729 32.1433177,4.55002608 C30.9640385,4.54818488 30.0055236,5.50073234 30,6.68 L30,6.68 C29.9973253,7.2510312 30.2229835,7.79944752 30.626768,8.20323199 C31.0305525,8.60701645 31.5789688,8.83267466 32.15,8.83" id="Shape" fill="#007589" fill-rule="nonzero"></path>
                        <path d="M37.26,8.66 C38.3645695,8.66 39.26,7.7645695 39.26,6.66 C39.26,5.5554305 38.3645695,4.66 37.26,4.66 C36.1554305,4.66 35.26,5.5554305 35.26,6.66 C35.26,7.7645695 36.1554305,8.66 37.26,8.66" id="Shape" fill="#007589" fill-rule="nonzero"></path>
                        <path d="M42.33,8.38 C43.0216304,8.38 43.6451585,7.96337188 43.909834,7.32438867 C44.1745095,6.68540546 44.0282092,5.94990398 43.5391526,5.4608474 C43.050096,4.97179083 42.3145945,4.82549049 41.6756113,5.090166 C41.0366281,5.35484151 40.62,5.97836956 40.62,6.67 C40.61734,7.12087038 40.7939006,7.55433012 41.1108387,7.87501902 C41.4277769,8.19570793 41.8591295,8.37735562 42.31,8.38 L42.31,8.38" id="Shape" fill="#007589" fill-rule="nonzero"></path>
                        <path d="M47.43,8.03 C48.1700616,8.03 48.77,7.43006156 48.77,6.69 C48.77,5.94993844 48.1700616,5.35 47.43,5.35 C46.6899384,5.35 46.09,5.94993844 46.09,6.69 L46.09,6.69 C46.09,7.43006156 46.6899384,8.03 47.43,8.03" id="Shape" fill="#007589" fill-rule="nonzero"></path>
                        <path d="M6.64,13.13 C7.37445412,13.1080661 7.95425305,12.4987654 7.9397384,11.7641272 C7.92522375,11.029489 7.32181013,10.4435656 6.58706281,10.4506596 C5.8523155,10.4577536 5.26032744,11.0552185 5.26,11.79 C5.25983849,12.1524304 5.40649423,12.4994695 5.66651188,12.7519505 C5.92652953,13.0044314 6.27773112,13.1408189 6.64,13.13" id="Shape" fill="#007589" fill-rule="nonzero"></path>
                        <path d="M11.73,13.6 C12.7296354,13.6 13.54,12.7896354 13.54,11.79 C13.54,10.7903646 12.7296354,9.98 11.73,9.98 C10.7303646,9.98 9.92,10.7903646 9.92,11.79 L9.92,11.79 C9.92,12.7896354 10.7303646,13.6 11.73,13.6" id="Shape" fill="#007589" fill-rule="nonzero"></path>
                        <path d="M16.83,13.97 C18.0339622,13.9755101 19.0144355,13.0039772 19.0199541,11.8000151 C19.0254726,10.5960529 18.0539466,9.61557279 16.8499845,9.6100458 C15.6460224,9.60451882 14.6655354,10.5760379 14.66,11.78 L14.66,11.78 C14.6573417,12.3555216 14.8834205,12.9085267 15.2885004,13.3173574 C15.6935803,13.726188 16.2444783,13.9573539 16.82,13.96 L16.82,13.96" id="Shape" fill="#007589" fill-rule="nonzero"></path>
                        <path d="M42.33,13.97 C43.5339808,13.97 44.51,12.9939808 44.51,11.79 C44.51,10.5860192 43.5339808,9.61 42.33,9.61 C41.1260192,9.61 40.15,10.5860192 40.15,11.79 L40.15,11.79 C40.1554748,12.9917057 41.1282943,13.9645252 42.33,13.97" id="Shape" fill="#007589" fill-rule="nonzero"></path>
                        <path d="M47.43,13.19 C48.2031986,13.19 48.83,12.5631986 48.83,11.79 C48.83,11.0168014 48.2031986,10.39 47.43,10.39 C46.6568014,10.39 46.03,11.0168014 46.03,11.79 L46.03,11.79 C46.03,12.5631986 46.6568014,13.19 47.43,13.19" id="Shape" fill="#007589" fill-rule="nonzero"></path>
                        <path d="M52.53,13.13 C53.2644541,13.1080661 53.844253,12.4987654 53.8297384,11.7641272 C53.8152238,11.029489 53.2118101,10.4435656 52.4770628,10.4506596 C51.7423155,10.4577536 51.1503274,11.0552185 51.15,11.79 L51.15,11.79 C51.15,12.5300616 51.7499384,13.13 52.49,13.13" id="Shape" fill="#007589" fill-rule="nonzero"></path>
                        <path d="M1.54,17.76 C2.02048773,17.76 2.41,17.3704877 2.41,16.89 C2.41,16.4095123 2.02048773,16.02 1.54,16.02 C1.05951227,16.02 0.67,16.4095123 0.67,16.89 C0.66733236,17.1180907 0.755390648,17.3378976 0.914799873,17.5010576 C1.0742091,17.6642176 1.29190891,17.7573632 1.52,17.76 L1.52,17.76" id="Shape" fill="#007589" fill-rule="nonzero"></path>
                        <path d="M6.64,18.6 C7.5830855,18.5944848 8.34365849,17.8264668 8.33998704,16.8833723 C8.3363156,15.9402778 7.569786,15.1782048 6.62668614,15.1800325 C5.68358629,15.1818601 4.92001613,15.9468984 4.92,16.89 C4.92550022,17.8360222 5.69396181,18.600016 6.64,18.6 L6.64,18.6" id="Shape" fill="#007589" fill-rule="nonzero"></path>
                        <path d="M11.73,19.07 C12.9339622,19.0755101 13.9144355,18.1039772 13.9199541,16.9000151 C13.9254726,15.6960529 12.9539466,14.7155728 11.7499845,14.7100458 C10.5460224,14.7045188 9.56553543,15.6760379 9.56,16.88 L9.56,16.88 C9.55734172,17.4555216 9.78342054,18.0085267 10.1885004,18.4173574 C10.5935803,18.826188 11.1444783,19.0573539 11.72,19.06 L11.72,19.06" id="Shape" fill="#007589" fill-rule="nonzero"></path>
                        <path d="M47.43,19.07 C48.6339622,19.0755101 49.6144355,18.1039772 49.6199541,16.9000151 C49.6254726,15.6960529 48.6539466,14.7155728 47.4499845,14.7100458 C46.2460224,14.7045188 45.2655354,15.6760379 45.26,16.88 L45.26,16.88 C45.2654748,18.0817057 46.2382943,19.0545252 47.44,19.06" id="Shape" fill="#007589" fill-rule="nonzero"></path>
                        <path d="M52.53,18.6 C53.4744069,18.6 54.24,17.8344069 54.24,16.89 C54.24,15.9455931 53.4744069,15.18 52.53,15.18 C51.5855931,15.18 50.82,15.9455931 50.82,16.89 C50.8254618,17.8321353 51.5878647,18.5945382 52.53,18.6 L52.53,18.6" id="Shape" fill="#007589" fill-rule="nonzero"></path>
                        <path d="M57.63,17.76 C58.1104877,17.76 58.5,17.3704877 58.5,16.89 C58.5,16.4095123 58.1104877,16.02 57.63,16.02 C57.1495123,16.02 56.76,16.4095123 56.76,16.89 L56.76,16.89 C56.76,17.3704877 57.1495123,17.76 57.63,17.76" id="Shape" fill="#007589" fill-rule="nonzero"></path>
                        <path d="M1.54,23.03 C2.09228475,23.03 2.54,22.5822847 2.54,22.03 C2.54,21.4777153 2.09228475,21.03 1.54,21.03 C0.98771525,21.03 0.54,21.4777153 0.54,22.03 C0.54,22.5822847 0.98771525,23.03 1.54,23.03" id="Shape" fill="#007589" fill-rule="nonzero"></path>
                        <path d="M6.64,23.96 C7.7445695,23.96 8.64,23.0645695 8.64,21.96 C8.64,20.8554305 7.7445695,19.96 6.64,19.96 C5.5354305,19.96 4.64,20.8554305 4.64,21.96 C4.64,23.0645695 5.5354305,23.96 6.64,23.96" id="Shape" fill="#007589" fill-rule="nonzero"></path>
                        <path d="M52.53,23.96 C53.6345695,23.96 54.53,23.0645695 54.53,21.96 C54.53,20.8554305 53.6345695,19.96 52.53,19.96 C51.4254305,19.96 50.53,20.8554305 50.53,21.96 C50.53,23.0645695 51.4254305,23.96 52.53,23.96" id="Shape" fill="#007589" fill-rule="nonzero"></path>
                        <path d="M57.63,23.01 C58.1822847,23.01 58.63,22.5622847 58.63,22.01 C58.63,21.4577153 58.1822847,21.01 57.63,21.01 C57.0777153,21.01 56.63,21.4577153 56.63,22.01 C56.63,22.5622847 57.0777153,23.01 57.63,23.01" id="Shape" fill="#007589" fill-rule="nonzero"></path>
                        <path d="M1.54,25.56 C0.695030771,25.5544954 0.00558215811,26.2350095 6.55001633e-05,27.0799786 C-0.00545115778,27.9249478 0.675053141,28.6144061 1.52002221,28.6199348 C2.36499129,28.6254635 3.05445928,27.944969 3.06,27.1 L3.06,27.1 C3.06001797,26.2588942 2.38108781,25.5754974 1.54,25.57" id="Shape" fill="#007589" fill-rule="nonzero"></path>
                        <path d="M6.64,24.96 C5.45812956,24.9544901 4.49556526,25.9081142 4.4900468,27.0899846 C4.48452834,28.271855 5.43814544,29.2344263 6.62001579,29.2399533 C7.80188615,29.2454804 8.76446434,28.2918703 8.77,27.11 L8.77,27.11 C8.77,25.9336335 7.81636652,24.98 6.64,24.98" id="Shape" fill="#007589" fill-rule="nonzero"></path>
                        <path d="M50.0679922,26.9575714 C50.0682502,25.5188448 48.9164608,24.34482 47.4779922,24.3175714 C48.7338966,24.2950718 49.7711304,23.3300014 49.8839802,22.078975 C49.9968301,20.8279486 49.1490448,19.6928385 47.9174406,19.4459512 C46.6858364,19.1990639 45.4660467,19.9197079 45.0879922,21.1175714 C44.8278494,20.215092 44.1453681,19.4953167 43.2579922,19.1875714 C44.3630437,18.7719996 45.040591,17.654615 44.8981874,16.4826252 C44.7557838,15.3106355 43.8303646,14.3880206 42.6579481,14.2491745 C41.4855316,14.1103284 40.3702083,14.7912638 39.9579922,15.8975714 C39.6467333,14.9825875 38.8944197,14.2866973 37.9579922,14.0475714 C39.1512703,13.6652059 39.8664595,12.4470039 39.6187942,11.2186807 C39.3711288,9.99035749 38.2397606,9.14447474 36.9915475,9.25438415 C35.7433344,9.36429357 34.7771948,10.394869 34.7479922,11.6475714 C34.7250608,10.3582888 33.7740996,9.27421936 32.4987888,9.08354183 C31.2234781,8.8928643 29.9970238,9.65137844 29.5979922,10.8775714 C29.2095721,9.68522261 28.0563219,8.91295662 26.8058987,9.0078654 C25.5554756,9.10277418 24.5319976,10.0402567 24.3279922,11.2775714 C24.117606,10.0914461 23.0792247,9.23216102 21.8746819,9.24739901 C20.6701391,9.26263701 19.6538273,10.1479149 19.4735137,11.3389827 C19.2932,12.5300505 20.0019351,13.6764802 21.1479922,14.0475714 C20.2097471,14.2833487 19.4560539,14.9805149 19.1479922,15.8975714 C18.735776,14.7912638 17.6204528,14.1103284 16.4480363,14.2491745 C15.2756197,14.3880206 14.3502006,15.3106355 14.207797,16.4826252 C14.0653934,17.654615 14.7429407,18.7719996 15.8479922,19.1875714 C14.9350509,19.5019681 14.2404054,20.2529362 13.9979922,21.1875714 C13.6202292,19.9909886 12.4024015,19.2705003 11.1717596,19.5155223 C9.94111772,19.7605443 9.09212135,20.8925395 9.20147991,22.1425619 C9.31083847,23.3925842 10.3434991,24.3599621 11.5979922,24.3875714 C10.2811327,24.408618 9.18121376,25.3970056 9.02002663,26.7041325 C8.8588395,28.0112594 9.685695,29.2372454 10.9579922,29.5775714 C9.685695,29.9178974 8.8588395,31.1438835 9.02002663,32.4510103 C9.18121376,33.7581372 10.2811327,34.7465249 11.5979922,34.7675714 C10.3452898,34.796774 9.31471434,35.7629137 9.20480492,37.0111268 C9.09489551,38.2593399 9.94077826,39.3907081 11.1691015,39.6383734 C12.3974247,39.8860388 13.6156266,39.1708495 13.9979922,37.9775714 C14.2371181,38.9139989 14.9330083,39.6663126 15.8479922,39.9775714 C14.7583208,40.4250033 14.1146208,41.5582656 14.2883818,42.7233348 C14.4621428,43.8884039 15.4085087,44.7845204 16.5813168,44.894521 C17.754125,45.0045217 18.8506179,44.3000103 19.2379922,43.1875714 C19.5411433,44.1077946 20.2969722,44.8069362 21.2379922,45.0375714 C20.0869441,45.3998236 19.3685892,46.5434941 19.5420231,47.7376712 C19.7154569,48.9318484 20.7294688,49.8239222 21.9360111,49.8437747 C23.1425534,49.8636271 24.1853649,49.0053963 24.3979922,47.8175714 C24.6049514,49.0537993 25.6299038,49.9885378 26.8799174,50.0810436 C28.129931,50.1735493 29.281313,49.3998678 29.6679922,48.2075714 C30.0670238,49.4337644 31.2934781,50.1922785 32.5687888,50.001601 C33.8440996,49.8109235 34.7950608,48.726854 34.8179922,47.4375714 C34.8471948,48.6902738 35.8133344,49.7208493 37.0615475,49.8307587 C38.3097606,49.9406681 39.4411288,49.0947853 39.6887942,47.8664621 C39.9364595,46.6381389 39.2212703,45.419937 38.0279922,45.0375714 C38.9662372,44.8017941 39.7199304,44.1046279 40.0279922,43.1875714 C40.4402083,44.2938791 41.5555316,44.9748144 42.7279481,44.8359683 C43.9003646,44.6971222 44.8257838,43.7745073 44.9681874,42.6025176 C45.110591,41.4305278 44.4330437,40.3131432 43.3279922,39.8975714 C44.2450487,39.5895096 44.9422149,38.8358165 45.1779922,37.8975714 C45.4459414,38.7353592 46.1404911,39.3665579 47.0000112,39.553401 C47.8595314,39.7402441 48.7534403,39.4543457 49.3450112,38.803401 C49.9365822,38.1524563 50.1359414,37.2353592 49.8679922,36.3975714 C49.5416331,35.3974257 48.6197543,34.7120289 47.5679922,34.6875714 C48.8848517,34.6665249 49.9847706,33.6781372 50.1459577,32.3710103 C50.3071449,31.0638835 49.4802894,29.8378974 48.2079922,29.4975714 C49.3793184,29.2048944 50.2028447,28.1548984 50.2079922,26.9475714 M14.1479922,36.3975714 C13.8228585,35.4008157 12.9060446,34.7162079 11.8579922,34.6875714 C12.8171691,34.6746922 13.693882,34.142539 14.1479922,33.2975714 C14.4190401,33.8947316 14.8747641,34.389017 15.4479922,34.7075714 C14.8109038,35.0798795 14.3444271,35.6862991 14.1479922,36.3975714 M12.4979922,29.4975714 C13.1594574,29.2773947 13.7085729,28.8072369 14.0279922,28.1875714 C14.2733855,28.7164868 14.6612009,29.1666297 15.1479922,29.4875714 C14.6636094,29.8112437 14.2764423,30.260634 14.0279922,30.7875714 C13.6878964,30.1474039 13.097771,29.6767517 12.3979922,29.4875714 M14.0279922,25.6875714 C13.5773614,24.8487769 12.7099594,24.3176365 11.7579922,24.2975714 C12.8081119,24.2749134 13.7280036,23.5880074 14.0479922,22.5875714 C14.2537564,23.2893898 14.7232321,23.8842979 15.3579922,24.2475714 C14.7847641,24.5661259 14.3290401,25.0604112 14.0579922,25.6575714 M19.2579922,41.3175714 C18.9904703,40.6373666 18.4499831,40.1005068 17.7679922,39.8375714 C18.3768919,39.6324833 18.9007977,39.2316427 19.2579922,38.6975714 C19.530915,39.1739798 19.9239856,39.5704983 20.3979922,39.8475714 C19.8604606,40.1921217 19.4579109,40.7111989 19.2579922,41.3175714 M19.2579922,20.2575714 C18.8819678,19.7378197 18.3492372,19.352291 17.7379922,19.1575714 C18.4446505,18.9008388 19.0012595,18.3442297 19.2579922,17.6375714 C19.4396793,18.2553031 19.8280052,18.7918989 20.3579922,19.1575714 C19.9069338,19.4288248 19.5292456,19.806513 19.2579922,20.2575714 M24.3879922,46.8975714 C24.2291889,45.9980025 23.5868677,45.2595254 22.7179922,44.9775714 C23.4009439,44.7968348 23.9903331,44.3646161 24.3679922,43.7675714 C24.6753436,44.2955245 25.1261155,44.7254916 25.6679922,45.0075714 C24.984827,45.4193996 24.5168767,46.1103574 24.3879922,46.8975714 M24.3879922,15.1875714 C24.0103331,14.5905268 23.4209439,14.158308 22.7379922,13.9775714 C23.609435,13.6995093 24.2533991,12.9591434 24.4079922,12.0575714 C24.5392475,12.8464356 25.0062125,13.5395868 25.6879922,13.9575714 C25.1364619,14.2493306 24.6840015,14.6983105 24.3879922,15.2475714 M29.6779922,46.5675714 C29.482134,45.9367356 29.0577414,45.401787 28.4879922,45.0675714 C28.9728697,44.8238704 29.3863108,44.4586642 29.6879922,44.0075714 C30.0063942,44.4479693 30.4384426,44.793608 30.9379922,45.0075714 C30.3378511,45.3281971 29.8859833,45.8697212 29.6779922,46.5175714 M29.6779922,15.0175714 C29.3756902,14.5695411 28.9621862,14.2077251 28.4779922,13.9675714 C29.0427402,13.6276323 29.4654229,13.094839 29.6679922,12.4675714 C29.8791584,13.1111722 30.3305004,13.6484841 30.9279922,13.9675714 C30.4222771,14.1952961 29.9895893,14.5587539 29.6779922,15.0175714 M34.8179922,47.2475714 C34.8057775,46.2907647 34.2729157,45.416718 33.4279922,44.9675714 C34.0251524,44.6965235 34.5194377,44.2407994 34.8379922,43.6675714 C35.2181409,44.2977258 35.827316,44.7563988 36.5379922,44.9475714 C35.5357334,45.2730435 34.8468788,46.1941862 34.8179922,47.2475714 M34.8179922,15.2475714 C34.4994377,14.6743434 34.0051524,14.2186193 33.4079922,13.9475714 C34.2467867,13.4969407 34.7779271,12.6295387 34.7979922,11.6775714 C34.8280873,12.7282767 35.5172915,13.64588 36.5179922,13.9675714 C35.807316,14.158744 35.1981409,14.6174171 34.8179922,15.2475714 M39.9679922,17.6275714 C40.2017491,18.3345716 40.7362213,18.9019907 41.4279922,19.1775714 C40.8224173,19.3839181 40.3020731,19.7847237 39.9479922,20.3175714 C39.6709191,19.8435648 39.2744005,19.4504942 38.7979922,19.1775714 C39.3308399,18.8234905 39.7316455,18.3031463 39.9379922,17.6975714 M39.9379922,41.3775714 C39.7284094,40.7763945 39.3280864,40.2601885 38.7979922,39.9075714 C39.2748093,39.630767 39.6711878,39.2343886 39.9479922,38.7575714 C40.3020731,39.2904191 40.8224173,39.6912248 41.4279922,39.8975714 C40.7425152,40.155102 40.2001329,40.6938442 39.9379922,41.3775714 M45.0879922,36.4375714 C44.8926504,35.7315223 44.43471,35.1268979 43.8079922,34.7475714 C44.3972381,34.4419965 44.8685042,33.949629 45.1479922,33.3475714 C45.5971387,34.1924949 46.4711854,34.7253567 47.4279922,34.7375714 C46.3789099,34.7632366 45.4605694,35.4489843 45.1379922,36.4475714 M44.0279922,29.5475714 C44.5173006,29.2295016 44.9058116,28.7785513 45.1479922,28.2475714 C45.4949844,28.8860157 46.0872022,29.3554566 46.7879922,29.5475714 C46.0872022,29.7396862 45.4949844,30.2091271 45.1479922,30.8475714 C44.9058116,30.3165915 44.5173006,29.8656412 44.0279922,29.5475714 M45.1479922,25.7475714 C44.8777869,25.1530675 44.4261812,24.6594519 43.8579922,24.3375714 C44.48471,23.9582449 44.9426504,23.3536205 45.1379922,22.6475714 C45.4553592,23.649874 46.3768273,24.3379572 47.4279922,24.3575714 C46.4730291,24.3761546 45.6019553,24.9072041 45.1479922,25.7475714" id="Shape" fill="#007589" fill-rule="nonzero"></path>
                        <path d="M52.53,24.96 C51.3481296,24.9544901 50.3855653,25.9081142 50.3800468,27.0899846 C50.3745283,28.271855 51.3281454,29.2344263 52.5100158,29.2399533 C53.6918862,29.2454804 54.6544643,28.2918703 54.66,27.11 L54.66,27.11 C54.66,25.9336335 53.7063665,24.98 52.53,24.98 L52.53,24.98" id="Shape" fill="#007589" fill-rule="nonzero"></path>
                        <path d="M57.63,28.62 C58.2529736,28.6403694 58.8260275,28.2807884 59.0786763,27.7109817 C59.331325,27.1411751 59.2130559,26.4750657 58.7796928,26.0270619 C58.3463296,25.5790581 57.6845158,25.4387305 57.1066322,25.6723146 C56.5287487,25.9058987 56.1503329,26.4666936 56.15,27.09 L56.15,27.09 C56.1607769,27.9304913 56.8395087,28.6092231 57.68,28.62" id="Shape" fill="#007589" fill-rule="nonzero"></path>
                        <path d="M1.54,30.66 C0.695030771,30.6544954 0.00558215811,31.3350095 6.55001633e-05,32.1799786 C-0.00545115778,33.0249478 0.675053141,33.7144061 1.52002221,33.7199348 C2.36499129,33.7254635 3.05445928,33.044969 3.06,32.2 L3.06,32.2 C3.06001797,31.3588942 2.38108781,30.6754974 1.54,30.67" id="Shape" fill="#007589" fill-rule="nonzero"></path>
                        <path d="M6.64,30.06 C5.45812956,30.0544901 4.49556526,31.0081142 4.4900468,32.1899846 C4.48452834,33.371855 5.43814544,34.3344263 6.62001579,34.3399533 C7.80188615,34.3454804 8.76446434,33.3918703 8.77,32.21 L8.77,32.21 C8.77,31.0336335 7.81636652,30.08 6.64,30.08" id="Shape" fill="#007589" fill-rule="nonzero"></path>
                        <path d="M52.53,30.06 C51.3481296,30.0544901 50.3855653,31.0081142 50.3800468,32.1899846 C50.3745283,33.371855 51.3281454,34.3344263 52.5100158,34.3399533 C53.6918862,34.3454804 54.6544643,33.3918703 54.66,32.21 L54.66,32.21 C54.66,31.0336335 53.7063665,30.08 52.53,30.08 L52.53,30.08" id="Shape" fill="#007589" fill-rule="nonzero"></path>
                        <path d="M57.63,30.66 C57.0102788,30.6559494 56.4493236,31.0261429 56.2093546,31.5975321 C55.9693856,32.1689213 56.0978061,32.828635 56.5345853,33.2682878 C56.9713646,33.7079406 57.630222,33.8406842 58.2031725,33.6044672 C58.776123,33.3682501 59.1499868,32.8097344 59.15,32.19 L59.15,32.19 C59.1392231,31.3495087 58.4604913,30.6707769 57.62,30.66" id="Shape" fill="#007589" fill-rule="nonzero"></path>
                        <path d="M1.54,36.25 C0.98771525,36.25 0.54,36.6977153 0.54,37.25 C0.54,37.8022847 0.98771525,38.25 1.54,38.25 C2.09228475,38.25 2.54,37.8022847 2.54,37.25 C2.54,36.6977153 2.09228475,36.25 1.54,36.25" id="Shape" fill="#007589" fill-rule="nonzero"></path>
                        <path d="M6.64,35.32 C5.83107551,35.32 5.10180294,35.8072844 4.79224093,36.5546331 C4.48267893,37.3019819 4.65379045,38.1622176 5.22578644,38.7342136 C5.79778243,39.3062096 6.65801809,39.4773211 7.40536686,39.1677591 C8.15271564,38.8581971 8.64,38.1289245 8.64,37.32 C8.64,36.2154305 7.7445695,35.32 6.64,35.32" id="Shape" fill="#007589" fill-rule="nonzero"></path>
                        <path d="M52.53,35.32 C51.4254305,35.32 50.53,36.2154305 50.53,37.32 C50.53,38.4245695 51.4254305,39.32 52.53,39.32 C53.6345695,39.32 54.53,38.4245695 54.53,37.32 C54.53,36.2154305 53.6345695,35.32 52.53,35.32" id="Shape" fill="#007589" fill-rule="nonzero"></path>
                        <path d="M57.63,36.25 C57.0777153,36.25 56.63,36.6977153 56.63,37.25 C56.63,37.8022847 57.0777153,38.25 57.63,38.25 C58.1822847,38.25 58.63,37.8022847 58.63,37.25 C58.63,36.6977153 58.1822847,36.25 57.63,36.25" id="Shape" fill="#007589" fill-rule="nonzero"></path>
                        <path d="M1.54,41.52 C1.0595586,41.5145094 0.665627105,41.8995219 0.660115374,42.379963 C0.654603642,42.8604042 1.03959872,43.2543526 1.52003963,43.2598855 C2.00048054,43.2654184 2.39444595,42.8804407 2.4,42.4 L2.4,42.4 C2.40003149,41.9233906 2.01657794,41.5354783 1.54,41.53" id="Shape" fill="#007589" fill-rule="nonzero"></path>
                        <path d="M6.64,40.68 C5.9474621,40.6800118 5.32331072,41.0977303 5.05923185,41.737942 C4.79515298,42.3781538 4.94329553,43.1144332 5.43442773,43.6026933 C5.92555993,44.0909534 6.66269556,44.234775 7.30134747,43.9669458 C7.93999938,43.6991166 8.35404993,43.0725261 8.35,42.38 L8.35,42.38 C8.34453821,41.4378647 7.5821353,40.6754618 6.64,40.67" id="Shape" fill="#007589" fill-rule="nonzero"></path>
                        <path d="M11.73,40.21 C10.8473643,40.2100093 10.0518319,40.7422377 9.7150036,41.5580763 C9.37817535,42.3739148 9.56652709,43.3123511 10.1920779,43.9350324 C10.8176287,44.5577137 11.756921,44.7417488 12.5712023,44.4011731 C13.3854836,44.0605975 13.9140488,43.2626264 13.91,42.38 C13.9045252,41.1782943 12.9317057,40.2054748 11.73,40.2 L11.73,40.2" id="Shape" fill="#007589" fill-rule="nonzero"></path>
                        <path d="M47.43,40.21 C46.5473643,40.2100093 45.7518319,40.7422377 45.4150036,41.5580763 C45.0781754,42.3739148 45.2665271,43.3123511 45.8920779,43.9350324 C46.5176287,44.5577137 47.456921,44.7417488 48.2712023,44.4011731 C49.0854836,44.0605975 49.6140488,43.2626264 49.61,42.38 L49.61,42.38 C49.5991445,41.1805445 48.6294555,40.2108555 47.43,40.2" id="Shape" fill="#007589" fill-rule="nonzero"></path>
                        <path d="M52.53,40.68 C51.5869783,40.691046 50.8309287,41.4634877 50.8401096,42.4065294 C50.8492904,43.3495711 51.6202352,44.1071469 52.5632933,44.0998313 C53.5063513,44.0925156 54.2654504,43.3230707 54.26,42.38 C54.26266,41.9291296 54.0860994,41.4956699 53.7691613,41.174981 C53.4522231,40.8542921 53.0208705,40.6726444 52.57,40.67 L52.57,40.67" id="Shape" fill="#007589" fill-rule="nonzero"></path>
                        <path d="M57.63,41.52 C57.1522737,41.4675329 56.7224671,41.8122737 56.67,42.29 C56.6175329,42.7677263 56.9622737,43.1975329 57.44,43.25 C57.5029313,43.2600914 57.5670687,43.2600914 57.63,43.25 C58.0718821,43.2024199 58.4068603,42.8294364 58.4068603,42.385 C58.4068603,41.9405636 58.0718821,41.5675801 57.63,41.52" id="Shape" fill="#007589" fill-rule="nonzero"></path>
                        <path d="M6.64,46.15 C5.8999686,46.144498 5.29559056,46.7399444 5.29007481,47.4799757 C5.28455906,48.220007 5.87999424,48.8243961 6.62002543,48.8299256 C7.36005662,48.8354551 7.96445677,48.2400311 7.97,47.5 L7.97,47.5 C7.9700205,46.7638262 7.37615335,46.1654938 6.64,46.16" id="Shape" fill="#007589" fill-rule="nonzero"></path>
                        <path d="M11.73,45.68 C10.7303646,45.68 9.92,46.4903646 9.92,47.49 C9.92,48.4896354 10.7303646,49.3 11.73,49.3 C12.7296354,49.3 13.54,48.4896354 13.54,47.49 L13.54,47.49 C13.54,46.4903646 12.7296354,45.68 11.73,45.68" id="Shape" fill="#007589" fill-rule="nonzero"></path>
                        <path d="M16.83,45.32 C15.6260192,45.32 14.65,46.2960192 14.65,47.5 C14.65,48.7039808 15.6260192,49.68 16.83,49.68 C18.0339808,49.68 19.01,48.7039808 19.01,47.5 C19.0045252,46.2982943 18.0317057,45.3254748 16.83,45.32 L16.83,45.32" id="Shape" fill="#007589" fill-rule="nonzero"></path>
                        <path d="M42.33,45.32 C41.1260192,45.32 40.15,46.2960192 40.15,47.5 C40.15,48.7039808 41.1260192,49.68 42.33,49.68 C43.5339808,49.68 44.51,48.7039808 44.51,47.5 L44.51,47.5 C44.4991445,46.3005445 43.5294555,45.3308555 42.33,45.32" id="Shape" fill="#007589" fill-rule="nonzero"></path>
                        <path d="M47.43,45.68 C46.4330424,45.6910168 45.6327245,46.5061946 45.6400488,47.5031862 C45.6473732,48.5001777 46.4595813,49.3035092 47.4565931,49.2998775 C48.453605,49.2962457 49.2599391,48.4870185 49.26,47.49 C49.2600295,47.0064728 49.0665907,46.5430351 48.7228118,46.2030134 C48.379033,45.8629918 47.9134977,45.6746572 47.43,45.68" id="Shape" fill="#007589" fill-rule="nonzero"></path>
                        <path d="M52.53,46.15 C51.7899384,46.15 51.19,46.7499384 51.19,47.49 C51.19,48.2300616 51.7899384,48.83 52.53,48.83 C53.2700616,48.83 53.87,48.2300616 53.87,47.49 L53.87,47.49 C53.87,46.7499384 53.2700616,46.15 52.53,46.15" id="Shape" fill="#007589" fill-rule="nonzero"></path>
                        <path d="M11.73,51.25 C10.9899384,51.25 10.39,51.8499384 10.39,52.59 C10.39,53.3300616 10.9899384,53.93 11.73,53.93 C12.4700616,53.93 13.07,53.3300616 13.07,52.59 L13.07,52.59 C13.07,52.2346099 12.9288218,51.8937757 12.6775231,51.6424769 C12.4262243,51.3911782 12.0853901,51.25 11.73,51.25" id="Shape" fill="#007589" fill-rule="nonzero"></path>
                        <path d="M16.83,50.88 C15.8855931,50.88 15.12,51.6455931 15.12,52.59 C15.12,53.5344069 15.8855931,54.3 16.83,54.3 C17.7744069,54.3 18.54,53.5344069 18.54,52.59 L18.54,52.59 C18.5345382,51.6478647 17.7721353,50.8854618 16.83,50.88" id="Shape" fill="#007589" fill-rule="nonzero"></path>
                        <path d="M21.93,50.62 C20.8254305,50.62 19.93,51.5154305 19.93,52.62 C19.93,53.7245695 20.8254305,54.62 21.93,54.62 C23.0345695,54.62 23.93,53.7245695 23.93,52.62 C23.93,51.5154305 23.0345695,50.62 21.93,50.62" id="Shape" fill="#007589" fill-rule="nonzero"></path>
                        <path d="M27.03,50.38 C25.8121151,50.391022 24.8327086,51.3853 24.84004,52.6032128 C24.8473715,53.8211255 25.8386771,54.8035404 27.0566064,54.7998996 C28.2745358,54.7962588 29.2599501,53.8079348 29.26,52.59 C29.2600241,52.0003898 29.0244421,51.4352154 28.605651,51.0201802 C28.1868599,50.6051451 27.619586,50.3746642 27.03,50.38 L27.03,50.38" id="Shape" fill="#007589" fill-rule="nonzero"></path>
                        <path d="M32.15,50.45 C30.9681296,50.4444901 30.0055653,51.3981142 30.0000468,52.5799846 C29.9945283,53.761855 30.9481454,54.7244263 32.1300158,54.7299533 C33.3118862,54.7354804 34.2744643,53.7818703 34.28,52.6 L34.28,52.6 C34.285337,52.0316316 34.0632853,51.4847055 33.6632528,51.0809169 C33.2632204,50.6771284 32.7183935,50.4499749 32.15,50.45 L32.15,50.45" id="Shape" fill="#007589" fill-rule="nonzero"></path>
                        <path d="M37.26,50.62 C36.1554305,50.62 35.26,51.5154305 35.26,52.62 C35.26,53.7245695 36.1554305,54.62 37.26,54.62 C38.3645695,54.62 39.26,53.7245695 39.26,52.62 C39.26,51.5154305 38.3645695,50.62 37.26,50.62" id="Shape" fill="#007589" fill-rule="nonzero"></path>
                        <path d="M42.33,50.88 C41.3855931,50.88 40.62,51.6455931 40.62,52.59 C40.62,53.5344069 41.3855931,54.3 42.33,54.3 C43.2744069,54.3 44.04,53.5344069 44.04,52.59 C44.0345382,51.6478647 43.2721353,50.8854618 42.33,50.88 L42.33,50.88" id="Shape" fill="#007589" fill-rule="nonzero"></path>
                        <path d="M47.43,51.25 C46.6899384,51.25 46.09,51.8499384 46.09,52.59 C46.09,53.3300616 46.6899384,53.93 47.43,53.93 C48.1700616,53.93 48.77,53.3300616 48.77,52.59 L48.77,52.59 C48.77,51.8499384 48.1700616,51.25 47.43,51.25" id="Shape" fill="#007589" fill-rule="nonzero"></path>
                        <path d="M16.83,56.82 C16.3881179,56.8675801 16.0531397,57.2405636 16.0531397,57.685 C16.0531397,58.1294364 16.3881179,58.5024199 16.83,58.55 C17.2819706,58.4948304 17.6396091,58.1413026 17.7,57.69 C17.7,57.2095123 17.3104877,56.82 16.83,56.82 L16.83,56.82" id="Shape" fill="#007589" fill-rule="nonzero"></path>
                        <path d="M21.93,56.65 C21.3777153,56.65 20.93,57.0977153 20.93,57.65 C20.93,58.2022847 21.3777153,58.65 21.93,58.65 C22.4822847,58.65 22.93,58.2022847 22.93,57.65 C22.93,57.0977153 22.4822847,56.65 21.93,56.65" id="Shape" fill="#007589" fill-rule="nonzero"></path>
                        <path d="M27.03,56.1 C26.1518672,56.1 25.44,56.8118672 25.44,57.69 C25.44,58.5681328 26.1518672,59.28 27.03,59.28 C27.9081328,59.28 28.62,58.5681328 28.62,57.69 L28.62,57.69 C28.62,56.8118672 27.9081328,56.1 27.03,56.1" id="Shape" fill="#007589" fill-rule="nonzero"></path>
                        <path d="M32.15,56.16 C31.3050043,56.16 30.62,56.8450043 30.62,57.69 C30.62,58.5349957 31.3050043,59.22 32.15,59.22 C32.9949957,59.22 33.68,58.5349957 33.68,57.69 L33.68,57.69 C33.6826839,57.2834019 33.5223499,56.8926791 33.2348354,56.6051646 C32.9473209,56.3176501 32.5565981,56.1573161 32.15,56.16 L32.15,56.16" id="Shape" fill="#007589" fill-rule="nonzero"></path>
                        <path d="M37.26,56.65 C36.7077153,56.65 36.26,57.0977153 36.26,57.65 C36.26,58.2022847 36.7077153,58.65 37.26,58.65 C37.8122847,58.65 38.26,58.2022847 38.26,57.65 C38.26,57.0977153 37.8122847,56.65 37.26,56.65" id="Shape" fill="#007589" fill-rule="nonzero"></path>
                        <path d="M42.33,56.82 C41.8495123,56.82 41.46,57.2095123 41.46,57.69 C41.46,58.1704877 41.8495123,58.56 42.33,58.56 C42.8104877,58.56 43.2,58.1704877 43.2,57.69 L43.2,57.69 C43.2,57.2095123 42.8104877,56.82 42.33,56.82" id="Shape" fill="#007589" fill-rule="nonzero"></path>
                        <path d="M30.15,38.94 C34.891512,38.9454909 38.74075,35.1081457 38.7499315,30.3666394 C38.7591129,25.6251332 34.924765,21.7729094 30.1832673,21.7600374 C25.4417696,21.7471654 21.5865626,25.5785138 21.57,30.32 C21.5646895,32.6008637 22.4656693,34.7904181 24.0747327,36.406983 C25.6837962,38.0235479 27.8691363,38.9347018 30.15,38.94 L30.15,38.94 Z" id="Shape" stroke="#1D1D1B" stroke-width="0.42"></path>
                        <path d="M30.15,38.94 C34.891512,38.9454909 38.74075,35.1081457 38.7499315,30.3666394 C38.7591129,25.6251332 34.924765,21.7729094 30.1832673,21.7600374 C25.4417696,21.7471654 21.5865626,25.5785138 21.57,30.32 C21.5646895,32.6008637 22.4656693,34.7904181 24.0747327,36.406983 C25.6837962,38.0235479 27.8691363,38.9347018 30.15,38.94" id="Shape" fill="#1D1D1B" fill-rule="nonzero"></path>
                        <path d="M24.46,28.59 C26.7947664,28.6064541 28.701331,26.728099 28.7196793,24.3933467 C28.7380276,22.0585944 26.8612199,20.1505065 24.5264832,20.130264 C22.1917466,20.1100215 20.2821367,21.9852806 20.26,24.32 C20.2493466,25.4435992 20.6861847,26.5252665 21.4741317,27.3263459 C22.2620786,28.1274253 23.3363782,28.5820814 24.46,28.59 L24.46,28.59" id="Shape" fill="#FFFFFF" fill-rule="nonzero"></path>
                    </g>
                </g>
            </g>
        </g>
    </g>
</svg>