<?xml version="1.0" encoding="UTF-8"?>
<svg width="159px" height="42px" viewBox="0 0 159 42" version="1.1" xmlns="http://www.w3.org/2000/svg" xmlns:xlink="http://www.w3.org/1999/xlink">
    <!-- Generator: Sketch 55 (78076) - https://sketchapp.com -->
    <title>logo</title>
    <desc>Created with Sketch.</desc>
    <g id="Desktop" stroke="none" stroke-width="1" fill="none" fill-rule="evenodd">
        <g id="Footer" transform="translate(-1267.000000, -230.000000)">
            <g id="logo" transform="translate(1267.000000, 230.000000)">
                <g id="bild">
                    <path d="M11.494246,0.999966745 C11.696981,1.00229718 11.881053,0.881966656 11.9602564,0.695328977 C12.0394599,0.508691299 11.9981129,0.292699948 11.8555792,0.148509104 C11.7130455,0.00431826084 11.4975462,-0.0395228905 11.3100051,0.0375175637 C11.122464,0.114558018 11.0000134,0.29722639 11,0.499974488 C10.9999819,0.77388371 11.2203544,0.996818363 11.494246,0.999966745" id="Shape" fill="#FFFFFF" fill-rule="nonzero"></path>
                    <path d="M15.5,2 C15.7761424,2 16,1.55228475 16,1 C16,0.44771525 15.7761424,0 15.5,0 C15.2238576,0 15,0.44771525 15,1 C15,1.55228475 15.2238576,2 15.5,2" id="Shape" fill="#FFFFFF" fill-rule="nonzero"></path>
                    <path d="M18.9936965,1.99998008 C19.3987156,2.00252742 19.7652725,1.76051063 19.9220348,1.38705075 C20.0787972,1.01359087 19.994802,0.582452045 19.7093095,0.295152842 C19.423817,0.00785363895 18.9932163,-0.0788598799 18.6187746,0.0755430445 C18.2443328,0.229945969 18.000008,0.594968356 18,1 C17.9999891,1.54982477 18.4438773,1.99652204 18.9936965,1.99998008" id="Shape" fill="#FFFFFF" fill-rule="nonzero"></path>
                    <path d="M22.9934607,1.99997849 C23.3984971,2.00262587 23.7651254,1.76067304 23.9219639,1.38722167 C24.0788024,1.0137703 23.9948696,0.582591359 23.7094001,0.295240906 C23.4239306,0.0078904527 22.9933156,-0.0788687761 22.6188476,0.0755191146 C22.2443795,0.229907005 22.0000302,0.594944484 22.0000215,0.999993547 C21.9982807,1.26460323 22.1021772,1.51897321 22.2886723,1.70669703 C22.4751673,1.89442085 22.728848,1.99998422 22.9934607,1.99997849" id="Shape" fill="#FFFFFF" fill-rule="nonzero"></path>
                    <path d="M27,2 C27.5522847,2 28,1.55228475 28,1 C28,0.44771525 27.5522847,0 27,0 C26.4477153,0 26,0.44771525 26,1 C26,1.55228475 26.4477153,2 27,2" id="Shape" fill="#FFFFFF" fill-rule="nonzero"></path>
                    <path d="M29.5,1 C29.7761424,1 30,0.776142375 30,0.5 C30,0.223857625 29.7761424,0 29.5,0 C29.2238576,0 29,0.223857625 29,0.5 C29,0.776142375 29.2238576,1 29.5,1" id="Shape" fill="#FFFFFF" fill-rule="nonzero"></path>
                    <path d="M7.99252322,4.99997196 C8.39764512,5.00299534 8.76456032,4.7612831 8.92169318,4.38786391 C9.07882605,4.01444472 8.99512335,3.58311516 8.70972587,3.29557209 C8.42432838,3.00802903 7.9936375,2.92109787 7.61905142,3.07542908 C7.24446535,3.22976028 7.00001128,3.59485429 7,3.99998709 C6.9999847,4.54936225 7.44316285,4.99587215 7.99252322,4.99997196" id="Shape" fill="#FFFFFF" fill-rule="nonzero"></path>
                    <path d="M11.999994,4.99998267 C12.4044469,4.99998267 12.7690747,4.75634617 12.9238521,4.38268048 C13.0786295,4.00901478 12.9930757,3.57890697 12.7070844,3.29291563 C12.421093,3.00692429 11.9909852,2.92137053 11.6173195,3.07614792 C11.2436538,3.23092532 11.0000173,3.59555312 11.0000173,4.00000595 C10.9984498,4.26569371 11.1033008,4.52095348 11.2911736,4.70882636 C11.4790465,4.89669924 11.7343063,5.00155019 11.999994,4.99998267" id="Shape" fill="#FFFFFF" fill-rule="nonzero"></path>
                    <path d="M15.5,6 C16.3284271,6 17,5.32842712 17,4.5 C17,3.67157288 16.3284271,3 15.5,3 C14.6715729,3 14,3.67157288 14,4.5 C14,5.32842712 14.6715729,6 15.5,6" id="Shape" fill="#FFFFFF" fill-rule="nonzero"></path>
                    <path d="M19.4931912,5.99998454 C20.100486,6.0027325 20.6495122,5.63902211 20.8838204,5.07874202 C21.1181286,4.51846193 20.9914775,3.87218474 20.5630257,3.44178569 C20.134574,3.01138665 19.4888775,2.88180602 18.9275402,3.11357075 C18.366203,3.34533548 18.0000062,3.89270626 18,4.5 C17.9999915,5.32577831 18.6674278,5.99624801 19.4931912,5.99998454" id="Shape" fill="#FFFFFF" fill-rule="nonzero"></path>
                    <path d="M22.4929692,5.99998351 C23.1002837,6.00282146 23.6493778,5.63916846 23.883756,5.07889587 C24.1181343,4.51862329 23.9915384,3.8723099 23.5631044,3.44186475 C23.1346705,3.0114196 22.4889568,2.88179795 21.9275922,3.1135493 C21.3662277,3.34530065 21.0000066,3.89268514 21,4.5 C20.999991,5.32569107 21.6672926,5.99612517 22.4929692,5.99998351" id="Shape" fill="#FFFFFF" fill-rule="nonzero"></path>
                    <path d="M26.5,6 C27.3284271,6 28,5.32842712 28,4.5 C28,3.67157288 27.3284271,3 26.5,3 C25.6715729,3 25,3.67157288 25,4.5 C25,5.32842712 25.6715729,6 26.5,6" id="Shape" fill="#FFFFFF" fill-rule="nonzero"></path>
                    <path d="M30.0000087,4.99998267 C30.5522886,4.99998267 31,4.5522713 31,4 C31,3.44771137 30.5522886,3 30,3 C29.4477287,3 29.0000173,3.44771137 29.0000173,3.99999134 C28.9984498,4.26568298 29.1033023,4.52094647 29.2911779,4.7088221 C29.4790535,4.89669774 29.734317,5.00155022 30.0000087,4.99998267" id="Shape" fill="#FFFFFF" fill-rule="nonzero"></path>
                    <path d="M34,5 C34.5522847,5 35,4.55228475 35,4 C35,3.44771525 34.5522847,3 34,3 C33.4477153,3 33,3.44771525 33,4 C33,4.55228475 33.4477153,5 34,5" id="Shape" fill="#FFFFFF" fill-rule="nonzero"></path>
                    <path d="M5.0298488,9 C5.57794785,8.98362781 6.0106328,8.52882464 5.99980099,7.98046527 C5.98896919,7.43210589 5.53866136,6.9947524 4.99034351,7.00004758 C4.44202565,7.00534276 4.00024436,7.45131128 4,7.99977761 C4,8.26505308 4.10535664,8.51946356 4.29289266,8.70704165 C4.48042869,8.89461973 4.73478212,9 5,9" id="Shape" fill="#FFFFFF" fill-rule="nonzero"></path>
                    <path d="M7.5,10 C8.32842712,10 9,9.32842712 9,8.5 C9,7.67157288 8.32842712,7 7.5,7 C6.67157288,7 6,7.67157288 6,8.5 C6,9.32842712 6.67157288,10 7.5,10" id="Shape" fill="#FFFFFF" fill-rule="nonzero"></path>
                    <path d="M11.4931058,9.99998411 C12.1004056,10.0027699 12.6494575,9.63908368 12.8837939,9.07880675 C13.1181304,8.51852981 12.9915032,7.87223739 12.5630612,7.44181895 C12.1346192,7.01140051 11.4889188,6.88180262 10.9275731,7.11356173 C10.3662273,7.34532083 10.0000223,7.89269738 10.0000159,8.50000647 C9.99818552,8.89719123 10.1546844,9.27873634 10.4348917,9.56023626 C10.715099,9.84173618 11.0959187,9.99998833 11.4931058,9.99998411" id="Shape" fill="#FFFFFF" fill-rule="nonzero"></path>
                    <path d="M30.5,10 C31.3284271,10 32,9.32842712 32,8.5 C32,7.67157288 31.3284271,7 30.5,7 C29.6715729,7 29,7.67157288 29,8.5 C29,9.32842712 29.6715729,10 30.5,10" id="Shape" fill="#FFFFFF" fill-rule="nonzero"></path>
                    <path d="M34,9 C34.5522847,9 35,8.55228475 35,8 C35,7.44771525 34.5522847,7 34,7 C33.4477153,7 33,7.44771525 33,8 C33,8.55228475 33.4477153,9 34,9" id="Shape" fill="#FFFFFF" fill-rule="nonzero"></path>
                    <path d="M37,9 C37.5522847,9 38,8.55228475 38,8 C38,7.44771525 37.5522847,7 37,7 C36.4477153,7 36,7.44771525 36,8 C36,8.26521649 36.1053568,8.5195704 36.2928932,8.70710678 C36.4804296,8.89464316 36.7347835,9 37,9" id="Shape" fill="#FFFFFF" fill-rule="nonzero"></path>
                    <path d="M0.500016928,11.9999661 C0.776149954,11.9999661 1,11.7761161 1,11.4999831 C1,11.22385 0.776149954,11 0.500016928,11 C0.223883902,11 3.3855484e-05,11.22385 3.3855484e-05,11.4999831 C-0.00152273575,11.6330579 0.0506539015,11.761137 0.144758462,11.8552415 C0.238863022,11.9493461 0.366942086,12.0015227 0.500016928,11.9999661" id="Shape" fill="#FFFFFF" fill-rule="nonzero"></path>
                    <path d="M4.00584787,12.9999829 C4.55735981,12.9967576 5.0021393,12.5476243 4.99999226,11.9961071 C4.99784522,11.4445898 4.54958233,10.9989331 3.99806199,11.0000019 C3.44654165,11.0010707 3.00000943,11.4484615 3,11.9999829 C2.99999545,12.2662157 3.10615466,12.5214599 3.29495773,12.7091653 C3.4837608,12.8968707 3.73961962,13.0015398 4.00584787,12.9999829" id="Shape" fill="#FFFFFF" fill-rule="nonzero"></path>
                    <path d="M7.4931058,12.9999841 C8.10040562,13.0027699 8.64945748,12.6390837 8.88379391,12.0788067 C9.11813035,11.5185298 8.99150318,10.8722374 8.56306117,10.4418189 C8.13461915,10.0114005 7.48891882,9.88180262 6.92757306,10.1135617 C6.36622731,10.3453208 6.00002227,10.8926974 6.00001588,11.5000065 C5.99818552,11.8971912 6.15468436,12.2787363 6.43489167,12.5602363 C6.71509897,12.8417362 7.0959187,12.9999883 7.4931058,12.9999841" id="Shape" fill="#FFFFFF" fill-rule="nonzero"></path>
                    <path d="M33.4930978,12.9999841 C34.1004009,13.0027699 34.6494556,12.6390837 34.8837933,12.0788067 C35.118131,11.5185298 34.9915031,10.8722374 34.5630589,10.4418189 C34.1346146,10.0114005 33.4889108,9.88180262 32.9275621,10.1135617 C32.3662134,10.3453208 32.0000064,10.8926974 32,11.5 C32,12.3284212 32.6715632,12.9999841 33.4999785,12.9999841" id="Shape" fill="#FFFFFF" fill-rule="nonzero"></path>
                    <path d="M37,13 C37.5522847,13 38,12.5522847 38,12 C38,11.4477153 37.5522847,11 37,11 C36.4477153,11 36,11.4477153 36,12 C36,12.5522847 36.4477153,13 37,13" id="Shape" fill="#FFFFFF" fill-rule="nonzero"></path>
                    <path d="M40.5,12 C40.7761424,12 41,11.7761424 41,11.5 C41,11.2238576 40.7761424,11 40.5,11 C40.2238576,11 40,11.2238576 40,11.5 C40,11.7761424 40.2238576,12 40.5,12" id="Shape" fill="#FFFFFF" fill-rule="nonzero"></path>
                    <path d="M0.5,16 C0.776142375,16 1,15.7761424 1,15.5 C1,15.2238576 0.776142375,15 0.5,15 C0.223857625,15 0,15.2238576 0,15.5 C0,15.7761424 0.223857625,16 0.5,16" id="Shape" fill="#FFFFFF" fill-rule="nonzero"></path>
                    <path d="M4.5,17 C5.32842712,17 6,16.3284271 6,15.5 C6,14.6715729 5.32842712,14 4.5,14 C3.67157288,14 3,14.6715729 3,15.5 C3,16.3284271 3.67157288,17 4.5,17" id="Shape" fill="#FFFFFF" fill-rule="nonzero"></path>
                    <path d="M37.5,17 C38.3284271,17 39,16.3284271 39,15.5 C39,14.6715729 38.3284271,14 37.5,14 C36.6715729,14 36,14.6715729 36,15.5 C36,16.3284271 36.6715729,17 37.5,17" id="Shape" fill="#FFFFFF" fill-rule="nonzero"></path>
                    <path d="M40.5,16 C40.7761424,16 41,15.7761424 41,15.5 C41,15.2238576 40.7761424,15 40.5,15 C40.2238576,15 40,15.2238576 40,15.5 C40,15.7761424 40.2238576,16 40.5,16" id="Shape" fill="#FFFFFF" fill-rule="nonzero"></path>
                    <path d="M1.00655011,18.0000215 C0.60150937,17.9973741 0.234877155,18.239327 0.0780369317,18.6127783 C-0.078803292,18.9862297 0.00513043619,19.4174086 0.290603011,19.7047591 C0.576075586,19.9921095 1.00669522,20.0788688 1.38116731,19.9244809 C1.75563941,19.770093 1.99999135,19.4050555 2,19 C2.00001174,18.4502724 1.55627287,18.0036145 1.00655011,18.0000215" id="Shape" fill="#FFFFFF" fill-rule="nonzero"></path>
                    <path d="M4.50701481,18.0000164 C3.89906397,17.9971821 3.34952859,18.361597 3.11556469,18.9227326 C2.88160079,19.4838682 3.00948641,20.1307319 3.43937724,20.5606228 C3.86926807,20.9905136 4.51613178,21.1183992 5.07726737,20.8844353 C5.63840296,20.6504714 6.0028179,20.100936 5.99998358,19.4929852 C5.99998358,18.6684413 5.3315587,18.0000164 4.50701481,18.0000164" id="Shape" fill="#FFFFFF" fill-rule="nonzero"></path>
                    <path d="M35.9140124,19.1113778 C35.9142004,18.060919 35.0748258,17.2037272 34.0265317,17.1838322 C34.9417809,17.1674045 35.6976723,16.4627768 35.7799124,15.5493638 C35.8621525,14.6359507 35.244323,13.8071718 34.3467828,13.6269118 C33.4492426,13.4466517 32.5603123,13.9728162 32.2848024,14.8474133 C32.0963231,14.1878544 31.5985459,13.6618865 30.9511771,13.4382607 C31.7564911,13.1348389 32.2502585,12.3190018 32.1464809,11.4632959 C32.0427032,10.60759 31.3682975,9.93396033 30.5138907,9.83258452 C29.659484,9.7312087 28.8466843,10.2283806 28.5462789,11.03613 C28.3194469,10.368072 27.771193,9.85998109 27.0887649,9.68538786 C27.9583747,9.40621095 28.4795739,8.51676408 28.299086,7.61992734 C28.1185981,6.72309061 27.2941056,6.10548547 26.3844616,6.18573373 C25.4748175,6.26598199 24.7707365,7.01843698 24.7494549,7.9330737 C24.7327435,6.99172864 24.0397238,6.20021603 23.1103321,6.06099647 C22.1809405,5.92177691 21.2871533,6.47559152 20.9963562,7.3708729 C20.7132924,6.5003022 19.8728532,5.93644694 18.9615985,6.00574277 C18.0503439,6.0750386 17.3044771,6.75952359 17.1558067,7.66292526 C17.0044372,6.79383352 16.245484,6.16355075 15.3650037,6.17572897 C14.4845234,6.1879072 13.7432259,6.83894046 13.6158605,7.71188748 C13.4884951,8.5848345 14.0127745,9.42121589 14.8529346,9.68538786 C14.1691819,9.85753614 13.6199227,10.3665587 13.3954205,11.03613 C13.0950151,10.2283806 12.2822155,9.7312087 11.4278087,9.83258452 C10.5734019,9.93396033 9.89899621,10.60759 9.79521859,11.4632959 C9.69144096,12.3190018 10.1852083,13.1348389 10.9905224,13.4382607 C10.32521,13.6678114 9.81898218,14.2161165 9.64232188,14.8985225 C9.36702444,14.0248604 8.47952394,13.4988096 7.58268504,13.6777078 C6.68584614,13.8566059 6.06713408,14.6831106 6.1468299,15.5957905 C6.22652572,16.5084705 6.97908439,17.2147829 7.89330504,17.2349414 C6.93363443,17.2503081 6.1320608,17.9719605 6.01459455,18.9263342 C5.8971283,19.8807079 6.49970504,20.7758382 7.42690054,21.0243207 C6.49970504,21.2728032 5.8971283,22.1679336 6.01459455,23.1223073 C6.1320608,24.076681 6.93363443,24.7983334 7.89330504,24.8137001 C6.98038939,24.8350218 6.22935028,25.5404302 6.14925302,26.4517892 C6.06915577,27.3631481 6.68559876,28.189195 7.58074793,28.3700231 C8.47589709,28.5508513 9.3636703,28.0286695 9.64232188,27.1574203 C9.81658658,27.8411349 10.3237214,28.3904224 10.9905224,28.6176821 C10.1964167,28.9443659 9.72731581,29.7717957 9.85394534,30.6224487 C9.98057487,31.4731018 10.6702457,32.127384 11.5249378,32.2076989 C12.37963,32.2880138 13.1787069,31.7736283 13.4610087,30.9614023 C13.6831365,31.6325092 14.2334266,32.1424873 14.9185227,32.3121444 C14.0796883,32.576636 13.5561822,33.4116651 13.6825733,34.2835708 C13.8089644,35.1554764 14.5479327,35.806807 15.4272089,35.8213019 C16.3064851,35.8357968 17.0664412,35.209176 17.2213949,34.3419083 C17.3722178,35.2445165 18.1191591,35.926998 19.0301153,35.9945393 C19.9410715,36.0620806 20.7801492,35.4971918 21.0619443,34.6266594 C21.3527414,35.5219408 22.2465286,36.0757554 23.1759203,35.9365358 C24.1053119,35.7973163 24.7983316,35.0058036 24.815043,34.0644586 C24.8363246,34.9790953 25.5404056,35.7315503 26.4500497,35.8117986 C27.3596938,35.8920468 28.1841863,35.2744417 28.3646741,34.3776049 C28.545162,33.4807682 28.0239628,32.5913213 27.154353,32.3121444 C27.8381057,32.1399961 28.3873649,31.6309736 28.6118671,30.9614023 C28.9122725,31.7691517 29.7250721,32.2663236 30.5794789,32.1649478 C31.4338856,32.063572 32.1082914,31.3899423 32.212069,30.5342364 C32.3158466,29.6785305 31.8220793,28.8626934 31.0167652,28.5592716 C31.6835662,28.3320119 32.190701,27.7827245 32.3649657,27.0990098 C32.6438293,27.9711962 33.5330309,28.4934923 34.4288804,28.3113047 C35.3247299,28.1291171 35.9402919,27.3007994 35.8576537,26.388707 C35.7750154,25.4766145 35.0206454,24.7728852 34.106695,24.7552896 C35.0663656,24.7399229 35.8679392,24.0182705 35.9854055,23.0638968 C36.1028717,22.1095231 35.500295,21.2143928 34.5730995,20.9659103 C35.4137416,20.7404888 35.9972941,19.9759431 35.9941756,19.1040765 M9.758923,26.0038135 C9.52197956,25.2760513 8.85384497,24.776198 8.09006943,24.7552896 C8.78472218,24.7437268 9.41828312,24.355044 9.74434786,23.7404077 C9.94187592,24.1764128 10.273988,24.5373058 10.691732,24.7698922 C10.2334789,25.0451476 9.89922991,25.4872928 9.758923,26.0038135 M8.55647392,20.9659103 C9.03891149,20.8058442 9.43931527,20.4623685 9.67147216,20.0094388 C9.85062927,20.3954062 10.1331829,20.7239885 10.48768,20.9586089 C10.1346826,21.1949321 9.85253193,21.5230458 9.67147216,21.9077791 C9.42092802,21.442624 8.99197642,21.0998704 8.48359822,20.9586089 M9.67147216,18.1841115 C9.34307184,17.5716818 8.71094655,17.1838797 8.01719373,17.1692296 C8.78323751,17.1549086 9.45476388,16.6525178 9.6860473,15.9207057 C9.82635421,16.4372264 10.1606032,16.8793715 10.6188563,17.154627 C10.2027005,17.3892304 9.8711355,17.7495288 9.67147216,18.1841115 M13.4610087,29.6179614 C13.2675963,29.120306 12.8731708,28.7277891 12.3751607,28.5373677 C12.8191624,28.3881197 13.2011073,28.0953425 13.4610087,27.7050185 C13.6599031,28.0528589 13.946356,28.3423694 14.2917917,28.544669 C13.9012691,28.7975565 13.6082781,29.1760729 13.4610087,29.6179614 M13.4610087,14.2414047 C13.1908027,13.8581085 12.8011633,13.5756011 12.353298,13.4382607 C12.8671804,13.2490851 13.272189,12.843313 13.4610087,12.3284617 C13.5944831,12.7789604 13.8772427,13.1704193 14.2626414,13.4382607 C13.9320322,13.6338692 13.6562491,13.9101723 13.4610087,14.2414047 M17.1995322,33.6920918 C17.0838032,33.0352888 16.6157071,32.4961038 15.9825079,32.2902405 C16.4798981,32.1576179 16.9092007,31.8422025 17.184957,31.4067821 C17.4089415,31.792257 17.7374447,32.1061892 18.1323411,32.3121444 C17.6337808,32.6120941 17.2925135,33.1169465 17.1995322,33.6920918 M17.1995322,10.539641 C16.9237758,10.1042206 16.4944733,9.78880524 15.9970831,9.65618262 C16.6321531,9.45316088 17.1014465,8.91259685 17.2141073,8.25433129 C17.3088406,8.83067187 17.64938,9.33711299 18.1469163,9.64158 C17.750856,9.84252244 17.4216893,10.1545519 17.1995322,10.539641 M21.0546568,33.4073408 C20.9112934,32.9470818 20.6021769,32.5567046 20.1874359,32.3121444 C20.5406068,32.1339339 20.8418407,31.8673423 21.0619443,31.5382057 C21.293982,31.8597538 21.6088404,32.1121153 21.9728906,32.2683366 C21.5374746,32.5048178 21.2089188,32.8993054 21.0546568,33.3708342 M21.0546568,10.3717109 C20.8341006,10.0448124 20.5328216,9.78069631 20.1801484,9.60507346 C20.5917124,9.35687342 20.8997454,8.96786453 21.0473692,8.50987711 C21.2019254,8.97941755 21.530658,9.37150371 21.965603,9.60507346 C21.5970597,9.77134232 21.2817354,10.0367141 21.0546568,10.3717109 M24.8004678,33.933035 C24.7900036,33.2348922 24.4021232,32.5974574 23.7874956,32.2683366 C24.2226803,32.0704361 24.5828942,31.7376979 24.815043,31.3191664 C25.0885515,31.7824368 25.5339489,32.118427 26.0539299,32.253734 C25.3221908,32.4894988 24.8193489,33.1631713 24.8004678,33.933035 M24.8004678,10.5688462 C24.5683191,10.1503147 24.2081052,9.81757653 23.7729205,9.61967607 C24.3864002,9.29299662 24.7743516,8.65824127 24.7858927,7.96227893 C24.8078247,8.72943131 25.3100871,9.39940182 26.0393548,9.63427869 C25.5207634,9.77245902 25.0763486,10.1077081 24.8004678,10.5688462 M28.5535665,12.3065578 C28.7247973,12.8222352 29.1139947,13.2362032 29.6175517,13.4382607 C29.1762348,13.5889207 28.7970303,13.8815614 28.5389913,14.2706099 C28.3370724,13.924523 28.0481067,13.6375301 27.7009208,13.4382607 C28.0892373,13.1797353 28.3813272,12.7998159 28.5317038,12.3576669 M28.5317038,29.6471666 C28.3809009,29.2071804 28.088725,28.829717 27.7009208,28.5738742 C28.0484046,28.3717708 28.3372682,28.0823626 28.5389913,27.7342237 C28.7970303,28.1232722 29.1762348,28.4159128 29.6175517,28.5665729 C29.1180056,28.754604 28.7227407,29.1479563 28.5317038,29.6471666 M32.2848024,26.04032 C32.1417737,25.5251448 31.8082163,25.0839146 31.3519934,24.8063988 C31.7689929,24.5750849 32.0991152,24.2135732 32.29209,23.7769142 C32.6205915,24.3927005 33.2568269,24.7813121 33.953656,24.7917962 C33.1891299,24.8105351 32.5198828,25.3112207 32.2848024,26.04032 M31.4758821,21.0024168 C31.8343881,20.7723928 32.1180632,20.4425063 32.29209,20.0532466 C32.5436307,20.5205152 32.9757609,20.8637032 33.4872515,21.0024168 C32.9757609,21.1411304 32.5436307,21.4843184 32.29209,21.951587 C32.1155992,21.5639021 31.8324691,21.2346494 31.4758821,21.0024168 M32.29209,18.2279194 C32.095176,17.7938537 31.7660652,17.4334497 31.3519934,17.1984348 C31.8082163,16.920919 32.1417737,16.4796888 32.2848024,15.9645136 C32.5141509,16.6977018 33.1868449,17.2009661 33.953656,17.2130374 C33.25772,17.2266056 32.6229188,17.6143412 32.29209,18.2279194" id="Shape" fill="#FFFFFF" fill-rule="nonzero"></path>
                    <path d="M37.5070148,18.0000164 C36.899064,17.9971821 36.3495286,18.361597 36.1155647,18.9227326 C35.8816008,19.4838682 36.0094864,20.1307319 36.4393772,20.5606228 C36.8692681,20.9905136 37.5161318,21.1183992 38.0772674,20.8844353 C38.638403,20.6504714 39.0028179,20.100936 38.9999836,19.4929852 C38.9999836,18.6684413 38.3315587,18.0000164 37.5070148,18.0000164" id="Shape" fill="#FFFFFF" fill-rule="nonzero"></path>
                    <path d="M41,20 C41.5522847,20 42,19.5522847 42,19 C42,18.4477153 41.5522847,18 41,18 C40.4477153,18 40,18.4477153 40,19 C40.0035652,19.5508012 40.4491988,19.9964348 41,20" id="Shape" fill="#FFFFFF" fill-rule="nonzero"></path>
                    <path d="M1.00655011,22.0000215 C0.60150937,21.9973741 0.234877155,22.239327 0.0780369317,22.6127783 C-0.078803292,22.9862297 0.00513043619,23.4174086 0.290603011,23.7047591 C0.576075586,23.9921095 1.00669522,24.0788688 1.38116731,23.9244809 C1.75563941,23.770093 1.99999135,23.4050555 2,23 C2.00001174,22.4502724 1.55627287,22.0036145 1.00655011,22.0000215" id="Shape" fill="#FFFFFF" fill-rule="nonzero"></path>
                    <path d="M4.50701481,21.0000164 C3.89906397,20.9971821 3.34952859,21.361597 3.11556469,21.9227326 C2.88160079,22.4838682 3.00948641,23.1307319 3.43937724,23.5606228 C3.86926807,23.9905136 4.51613178,24.1183992 5.07726737,23.8844353 C5.63840296,23.6504714 6.0028179,23.100936 5.99998358,22.4929852 C5.99998358,21.6684413 5.3315587,21.0000164 4.50701481,21.0000164" id="Shape" fill="#FFFFFF" fill-rule="nonzero"></path>
                    <path d="M37.5070148,21.0000164 C36.899064,20.9971821 36.3495286,21.361597 36.1155647,21.9227326 C35.8816008,22.4838682 36.0094864,23.1307319 36.4393772,23.5606228 C36.8692681,23.9905136 37.5161318,24.1183992 38.0772674,23.8844353 C38.638403,23.6504714 39.0028179,23.100936 38.9999836,22.4929852 C38.9999836,21.6684413 38.3315587,21.0000164 37.5070148,21.0000164" id="Shape" fill="#FFFFFF" fill-rule="nonzero"></path>
                    <path d="M41,22 C40.4477153,22 40,22.4477153 40,23 C40,23.5522847 40.4477153,24 41,24 C41.5522847,24 42,23.5522847 42,23 C41.9964348,22.4491988 41.5508012,22.0035652 41,22" id="Shape" fill="#FFFFFF" fill-rule="nonzero"></path>
                    <path d="M0.5,26 C0.223857625,26 0,26.2238576 0,26.5 C0,26.7761424 0.223857625,27 0.5,27 C0.776142375,27 1,26.7761424 1,26.5 C1,26.2238576 0.776142375,26 0.5,26" id="Shape" fill="#FFFFFF" fill-rule="nonzero"></path>
                    <path d="M4.5,25 C3.67157288,25 3,25.6715729 3,26.5 C3,27.3284271 3.67157288,28 4.5,28 C5.32842712,28 6,27.3284271 6,26.5 C6,25.6715729 5.32842712,25 4.5,25" id="Shape" fill="#FFFFFF" fill-rule="nonzero"></path>
                    <path d="M37.5,25 C36.6715729,25 36,25.6715729 36,26.5 C36,27.3284271 36.6715729,28 37.5,28 C38.3284271,28 39,27.3284271 39,26.5 C39,25.6715729 38.3284271,25 37.5,25" id="Shape" fill="#FFFFFF" fill-rule="nonzero"></path>
                    <path d="M40.5,26 C40.2238576,26 40,26.2238576 40,26.5 C40,26.7761424 40.2238576,27 40.5,27 C40.7761424,27 41,26.7761424 41,26.5 C41,26.2238576 40.7761424,26 40.5,26" id="Shape" fill="#FFFFFF" fill-rule="nonzero"></path>
                    <path d="M0.50575403,30.0000333 C0.303019017,29.9977028 0.118947008,30.1180333 0.039743552,30.304671 C-0.039459904,30.4913087 0.00188714662,30.7073001 0.14442084,30.8514909 C0.286954534,30.9956817 0.502453796,31.0395229 0.689994903,30.9624824 C0.877536009,30.885442 0.999986606,30.7027736 1,30.5000255 C1.00001809,30.2261163 0.779645574,30.0031816 0.50575403,30.0000333" id="Shape" fill="#FFFFFF" fill-rule="nonzero"></path>
                    <path d="M4,29 C3.44771525,29 3,29.4477153 3,30 C3,30.5522847 3.44771525,31 4,31 C4.55228475,31 5,30.5522847 5,30 C5,29.4477153 4.55228475,29 4,29" id="Shape" fill="#FFFFFF" fill-rule="nonzero"></path>
                    <path d="M7.5,29 C6.67157288,29 6,29.6715729 6,30.5 C6,31.3284271 6.67157288,32 7.5,32 C8.32842712,32 9,31.3284271 9,30.5 C9,29.6715729 8.32842712,29 7.5,29" id="Shape" fill="#FFFFFF" fill-rule="nonzero"></path>
                    <path d="M33.5,29 C32.6715729,29 32,29.6715729 32,30.5 C32,31.3284271 32.6715729,32 33.5,32 C34.3284271,32 35,31.3284271 35,30.5 C34.9962329,29.6731383 34.3268617,29.0037671 33.5,29" id="Shape" fill="#FFFFFF" fill-rule="nonzero"></path>
                    <path d="M36.9882959,29.0000173 C36.4375846,29.0064591 35.995749,29.4569979 36.0000309,30.0077492 C36.0043127,30.5585004 36.4530999,31.0021146 37.0038447,30.9999924 C37.5545896,30.9978702 37.999945,30.5508107 37.9999827,30.0000428 C38.0015502,29.7343421 37.8966978,29.4790699 37.7088222,29.2911878 C37.5209466,29.1033058 37.2656832,28.9984497 36.9999917,29.0000173" id="Shape" fill="#FFFFFF" fill-rule="nonzero"></path>
                    <path d="M40.5535286,30.0028827 C40.3631595,29.9823849 40.1778016,30.0723997 40.0762007,30.2346859 C39.9745998,30.3969721 39.9745998,30.6030279 40.0762007,30.7653141 C40.1778016,30.9276003 40.3631595,31.0176151 40.5535286,30.9971173 C40.8074838,30.9697729 41,30.7554185 41,30.5 C41,30.2445815 40.8074838,30.0302271 40.5535286,30.0028827" id="Shape" fill="#FFFFFF" fill-rule="nonzero"></path>
                    <path d="M5.00747678,33.000028 C4.60235488,32.9970047 4.23543968,33.2387169 4.07830682,33.6121361 C3.92117395,33.9855553 4.00487665,34.4168848 4.29027413,34.7044279 C4.57567162,34.991971 5.0063625,35.0789021 5.38094858,34.9245709 C5.75553465,34.7702397 5.99998872,34.4051457 6,34.0000129 C6.0000153,33.4506378 5.55683715,33.0041279 5.00747678,33.000028" id="Shape" fill="#FFFFFF" fill-rule="nonzero"></path>
                    <path d="M7.5,32 C6.67157288,32 6,32.6715729 6,33.5 C6,34.3284271 6.67157288,35 7.5,35 C8.32842712,35 9,34.3284271 9,33.5 C9,32.6715729 8.32842712,32 7.5,32" id="Shape" fill="#FFFFFF" fill-rule="nonzero"></path>
                    <path d="M11.5,32 C10.6715729,32 10,32.6715729 10,33.5 C10,34.3284271 10.6715729,35 11.5,35 C12.3284271,35 13,34.3284271 13,33.5 C13,32.6715729 12.3284271,32 11.5,32" id="Shape" fill="#FFFFFF" fill-rule="nonzero"></path>
                    <path d="M30.5,32 C29.6715729,32 29,32.6715729 29,33.5 C29,34.3284271 29.6715729,35 30.5,35 C31.3284271,35 32,34.3284271 32,33.5 C31.9962329,32.6731383 31.3268617,32.0037671 30.5,32" id="Shape" fill="#FFFFFF" fill-rule="nonzero"></path>
                    <path d="M33.4834258,32 C32.6572181,32.0091302 31.9939715,32.6847125 32.0000413,33.5109738 C32.0061112,34.337235 32.6792117,35.0029997 33.5054643,34.9999898 C34.331717,34.99698 34.9999496,34.3263292 35,33.5000457 C35,32.6715933 34.3284273,32 33.5,32" id="Shape" fill="#FFFFFF" fill-rule="nonzero"></path>
                    <path d="M37,33 C36.4477153,33 36,33.4477153 36,34 C36,34.5522847 36.4477153,35 37,35 C37.5522847,35 38,34.5522847 38,34 C38,33.4477153 37.5522847,33 37,33" id="Shape" fill="#FFFFFF" fill-rule="nonzero"></path>
                    <path d="M8,37 C7.44771525,37 7,37.4477153 7,38 C7,38.5522847 7.44771525,39 8,39 C8.55228475,39 9,38.5522847 9,38 C9,37.4477153 8.55228475,37 8,37" id="Shape" fill="#FFFFFF" fill-rule="nonzero"></path>
                    <path d="M12.0000146,37 C11.5955583,37 11.2309273,37.2436386 11.0761486,37.6173075 C10.9213698,37.9909765 11.0069244,38.421088 11.2929182,38.7070818 C11.578912,38.9930756 12.0090235,39.0786302 12.3826925,38.9238514 C12.7563614,38.7690727 13,38.4044417 13,37.9999854 C13,37.4477087 12.5522913,37 12.0000146,37" id="Shape" fill="#FFFFFF" fill-rule="nonzero"></path>
                    <path d="M15.5,37 C14.6715729,37 14,37.6715729 14,38.5 C14,39.3284271 14.6715729,40 15.5,40 C16.3284271,40 17,39.3284271 17,38.5 C17,37.6715729 16.3284271,37 15.5,37" id="Shape" fill="#FFFFFF" fill-rule="nonzero"></path>
                    <path d="M19.4864179,36.0000155 C18.6598036,36.0074967 17.9950517,36.6823563 18.0000278,37.5090065 C18.0050038,38.3356567 18.677832,39.0024643 19.5044765,38.9999932 C20.331121,38.997522 20.9999506,38.3267036 20.9999845,37.5000384 C21.0017994,37.101654 20.8443479,36.7190618 20.5626505,36.4373586 C20.280953,36.1556553 19.8983688,35.9982005 19.4999925,36.0000155" id="Shape" fill="#FFFFFF" fill-rule="nonzero"></path>
                    <path d="M22.5070225,36.0000166 C21.8997114,35.9971786 21.3506203,36.3608316 21.1162433,36.9211042 C20.8818664,37.4813767 21.0084616,38.1276901 21.4368931,38.5581353 C21.8653247,38.9885804 22.5110349,39.118202 23.0723963,38.8864507 C23.6337578,38.6546994 23.9999768,38.1073149 23.9999834,37.4999942 C24.0018582,37.1016036 23.8444282,36.7189881 23.5627218,36.4372803 C23.2810154,36.1555725 22.8984019,35.9981417 22.5000133,36.0000166" id="Shape" fill="#FFFFFF" fill-rule="nonzero"></path>
                    <path d="M26.5,37 C25.6715729,37 25,37.6715729 25,38.5 C25,39.3284271 25.6715729,40 26.5,40 C27.3284271,40 28,39.3284271 28,38.5 C28,37.6715729 27.3284271,37 26.5,37" id="Shape" fill="#FFFFFF" fill-rule="nonzero"></path>
                    <path d="M30.0000146,37 C29.5955583,37 29.2309273,37.2436386 29.0761486,37.6173075 C28.9213698,37.9909765 29.0069244,38.421088 29.2929182,38.7070818 C29.578912,38.9930756 30.0090235,39.0786302 30.3826925,38.9238514 C30.7563614,38.7690727 31,38.4044417 31,37.9999854 C31,37.4477087 30.5522913,37 30.0000146,37" id="Shape" fill="#FFFFFF" fill-rule="nonzero"></path>
                    <path d="M34,37 C33.4477153,37 33,37.4477153 33,38 C33,38.5522847 33.4477153,39 34,39 C34.5522847,39 35,38.5522847 35,38 C35,37.4477153 34.5522847,37 34,37" id="Shape" fill="#FFFFFF" fill-rule="nonzero"></path>
                    <path d="M11.471722,41 C11.2034041,41.0275029 11,41.2431004 11,41.5 C11,41.7568996 11.2034041,41.9724971 11.471722,42 C11.7461659,41.96811 11.9633297,41.7637588 12,41.5028902 C12,41.2251516 11.7634819,41 11.471722,41" id="Shape" fill="#FFFFFF" fill-rule="nonzero"></path>
                    <path d="M15.5,41 C15.2238576,41 15,41.2238576 15,41.5 C15,41.7761424 15.2238576,42 15.5,42 C15.7761424,42 16,41.7761424 16,41.5 C16,41.2238576 15.7761424,41 15.5,41" id="Shape" fill="#FFFFFF" fill-rule="nonzero"></path>
                    <path d="M19,40 C18.4477153,40 18,40.4477153 18,41 C18,41.5522847 18.4477153,42 19,42 C19.5522847,42 20,41.5522847 20,41 C20,40.7347835 19.8946432,40.4804296 19.7071068,40.2928932 C19.5195704,40.1053568 19.2652165,40 19,40" id="Shape" fill="#FFFFFF" fill-rule="nonzero"></path>
                    <path d="M22.9999892,40.0000217 C22.4477104,40.0000217 22,40.4477321 22,41.0000108 C22,41.5522896 22.4477104,42 22.9999892,42 C23.5522679,42 23.9999783,41.5522896 23.9999783,41.0000108 C24.0017325,40.7342633 23.8969402,40.4788917 23.7090242,40.2909758 C23.5211083,40.1030598 23.2657367,39.9982675 22.9999892,40.0000217" id="Shape" fill="#FFFFFF" fill-rule="nonzero"></path>
                    <path d="M26.5,41 C26.2238576,41 26,41.2238576 26,41.5 C26,41.7761424 26.2238576,42 26.5,42 C26.7761424,42 27,41.7761424 27,41.5 C27,41.2238576 26.7761424,41 26.5,41" id="Shape" fill="#FFFFFF" fill-rule="nonzero"></path>
                    <path d="M29.5,41 C29.2238576,41 29,41.2238576 29,41.5 C29,41.7761424 29.2238576,42 29.5,42 C29.7761424,42 30,41.7761424 30,41.5 C30,41.2238576 29.7761424,41 29.5,41" id="Shape" fill="#FFFFFF" fill-rule="nonzero"></path>
                    <path d="M20.9930516,28.9999955 C24.3049342,29.0041505 26.9935754,26.1004552 26.9999885,22.5125868 C27.0064016,18.9247184 24.328161,16.0097647 21.0162884,16.0000245 C17.7044159,15.9902843 15.0116054,18.8894418 15.0000367,22.477295 C14.9944696,24.2038215 15.6231932,25.861811 16.7475042,27.0854928 C17.8718152,28.3091747 19.3993262,28.9979961 20.9930516,28.9999955 Z" id="Shape" stroke="#1D1D1B" stroke-width="0.42"></path>
                    <path d="M20.9930333,28.9999955 C24.304926,29.0041505 26.9935754,26.1004552 26.9999885,22.5125868 C27.0064017,18.9247184 24.3281528,16.0097647 21.0162701,16.0000245 C17.7043875,15.9902843 15.0115688,18.8894418 15,22.477295 C14.9999978,26.0641927 17.6820428,28.9731191 20.9930333,28.9772947" id="Shape" fill="#1D1D1B" fill-rule="nonzero"></path>
                    <path d="M16.9787894,19.9999239 C18.6346887,20.0115935 19.9868921,18.6794276 19.9999054,17.023576 C20.0129187,15.3677244 18.6818199,14.0144715 17.0259416,14.0001151 C15.3700634,13.9857588 14.0157001,15.3157288 14,16.9715571 C14,17.7672061 14.3160775,18.5302673 14.8786991,19.0928761 C15.4413207,19.6554848 16.2043993,19.9715551 17.0000664,19.9715551" id="Shape" fill="#FFFFFF" fill-rule="nonzero"></path>
                </g>
                <g id="text" transform="translate(53.000000, 9.000000)" fill="#FFFFFF" fill-rule="nonzero">
                    <polygon id="Shape" points="4.39095315 20 4.39095315 23.2658824 1.60904685 23.2658824 1.60904685 20 0 20 0 28 1.60904685 28 1.60904685 24.6494118 4.39095315 24.6494118 4.39095315 28 6 28 6 20"></polygon>
                    <path d="M12.518617,22.3529412 L13.4494681,25.2705882 L11.5132979,25.2705882 L12.518617,22.3529412 Z M11.8763298,20 L9,28 L10.6103723,28 L11.0851064,26.5788235 L13.8776596,26.5788235 L14.3430851,28 L16,28 L13.1143617,20 L11.8763298,20 Z" id="Shape"></path>
                    <path d="M25,25.7694954 L25,20 L23.4260731,20 L23.4260731,25.7075688 C23.4260731,26.5625968 22.7854631,27.2557339 21.9952305,27.2557339 C21.204998,27.2557339 20.5643879,26.5625968 20.5643879,25.7075688 L20.5643879,20 L19,20 L19,25.7694954 C19,27.5536538 20.3367396,29 21.9856916,29 C23.6346435,29 24.9713831,27.5536538 24.9713831,25.7694954" id="Shape"></path>
                    <path d="M34.9950052,25.6097465 C35.0372432,24.9906919 34.8101147,24.383067 34.3699335,23.9375252 C33.9394538,23.5759456 33.4011806,23.3608324 32.8356668,23.3243773 L31.8885886,23.1943157 C31.6123653,23.1656735 31.3514896,23.0555396 31.1403968,22.8784517 C30.9835957,22.7345803 30.8973609,22.5315646 30.9036272,22.3210445 C30.9036272,21.7729275 31.3108709,21.3177117 32.1442997,21.3177117 C32.7469539,21.2712926 33.3426348,21.4694233 33.7922158,21.8658287 L34.7392941,20.9368169 C34.0472963,20.2808775 33.1043466,19.9433001 32.1442997,20.007805 C30.4016758,20.007805 29.303065,20.9925576 29.303065,22.4046556 C29.2692076,22.9778381 29.4782713,23.5392746 29.8807828,23.9561054 C30.315698,24.3280486 30.8593187,24.5556555 31.433991,24.6064137 L32.3810693,24.7364754 C32.6427582,24.7497051 32.8925777,24.8477267 33.0913779,25.0151789 C33.264093,25.1957984 33.3561438,25.4365847 33.3470891,25.6840675 C33.3470891,26.3157955 32.8451376,26.6130793 31.9170009,26.6130793 C31.2200566,26.6460809 30.5384227,26.4053737 30.0228445,25.9441908 L29,26.9475236 C29.7829615,27.6946785 30.8565984,28.0739503 31.9454133,27.9880169 C33.6312125,27.9880169 34.9287097,27.1240359 34.9287097,25.5911663" id="Shape"></path>
                    <polygon id="Shape" points="46 28 46 20 44.5090909 20 42.5090909 24.32 40.4909091 20 39 20 39 28 40.5090909 28 40.5090909 23.3317647 42 26.3717647 43.0181818 26.3717647 44.4909091 23.3317647 44.4909091 28"></polygon>
                    <path d="M56,28 L53.0973333,20 L51.884,20 L49,28 L50.6146667,28 L51.0906667,26.5788235 L53.8906667,26.5788235 L54.3573333,28 L56,28 Z M53.4986667,25.2705882 L51.5293333,25.2705882 L52.5373333,22.3623529 L53.4986667,25.2705882 Z" id="Shape"></path>
                    <polygon id="Shape" points="66 28 66 20 64.4700461 20 64.4700461 24.8941176 61.3640553 20 60 20 60 28 61.5299539 28 61.5299539 23.0870588 64.6359447 28"></polygon>
                    <polygon id="Shape" points="76 28 76 20 74.4700461 20 74.4700461 24.8941176 71.3640553 20 70 20 70 28 71.5299539 28 71.5299539 23.0870588 74.6359447 28"></polygon>
                    <path d="M64,7 C63.9999929,4.6216504 63.9999929,2.90073077 62.6501982,1.50852612 C60.6111584,-0.502842041 57.3699286,-0.502842041 55.3308888,1.50852612 C53.9620829,2.90073077 54.0001053,4.6216504 54.0001053,7 C54.0001053,9.3783496 54.0001053,11.0992692 55.3308888,12.4914739 C57.3699286,14.502842 60.6111584,14.502842 62.6501982,12.4914739 C64.0190041,11.0992692 63.9999929,9.3783496 64,7 M61.3574371,7 C61.3574371,9.64905606 61.2053475,10.2871499 60.6920453,10.8672351 C60.2609811,11.352253 59.6426039,11.6207925 59.0000491,11.6020098 C58.3521301,11.6199911 57.7282312,11.3520641 57.2890417,10.8672351 C56.7757395,10.2871499 56.6426612,9.64905606 56.6426612,7 C56.6426612,4.35094394 56.7757395,3.71285014 57.2890417,3.13276487 C57.7282312,2.64793593 58.3521301,2.38000895 59.0000491,2.3979902 C59.6426039,2.37920746 60.2609811,2.647747 60.6920453,3.13276487 C61.2053475,3.71285014 61.3574371,4.35094394 61.3574371,7" id="Shape"></path>
                    <path d="M75.9994798,4.35724492 C76.0146856,3.15512457 75.5765168,2.0008992 74.7913766,1.17485591 C74.0062363,0.348812623 72.9459461,-0.0734854406 71.8679821,0.0105107582 L67,0.0105107582 L67,14 L69.4519541,14 L69.4519541,8.75394153 L71.8679821,8.75394153 C72.9475282,8.83810393 74.0092871,8.41448062 74.7947287,7.58622058 C75.5801703,6.75796054 76.0172274,5.60105986 75.9994798,4.39721488 M73.5565072,4.39721488 C73.5737858,4.92418629 73.386862,5.43404616 73.0432334,5.79723885 C72.6996047,6.16043153 72.2323518,6.34199301 71.7602039,6.29578842 L69.4699171,6.29578842 L69.4699171,2.48864885 L71.7602039,2.48864885 C72.2341447,2.44851908 72.7010108,2.63490002 73.0438944,3.00112002 C73.386778,3.36734003 73.5732104,3.87872075 73.5565072,4.40720738" id="Shape"></path>
                    <polygon id="Shape" points="86 2.43696275 86 0 77 0 77 2.43696275 80.2694611 2.43696275 80.2694611 14 82.7215569 14 82.7215569 2.43696275"></polygon>
                    <polygon id="Rectangle-path" points="90 0 93 0 93 14 90 14"></polygon>
                    <polygon id="Shape" points="106 14 101.161947 5.56590258 105.669027 0 102.446903 0 97.6575221 6.0974212 97.6575221 0 95 0 95 14 97.6575221 14 97.6575221 9.78796562 99.4097345 7.63180516 102.904425 14"></polygon>
                    <path d="M9.79824135,3.92 C9.79824135,1.53 8.2277571,0 5.54114254,0 L0,0 L0,14 L5.7683195,14 C8.2277571,14 9.99578654,12.59 9.99578654,10 C10.0634818,8.65760043 9.31043676,7.41075412 8.09935273,6.86 C9.15224043,6.2963175 9.80732692,5.1857979 9.79824135,3.98 M7.11162679,4.1 C7.12186654,4.56619786 6.92944998,5.01344622 6.58530598,5.32336725 C6.24116197,5.63328828 5.77998621,5.77463656 5.32384283,5.71 L2.69649182,5.71 L2.69649182,2.48 L5.32384283,2.48 C5.77998621,2.41536344 6.24116197,2.55671172 6.58530598,2.86663275 C6.92944998,3.17655378 7.12186654,3.62380214 7.11162679,4.09 M7.29929471,9.85 C7.32504491,10.3324477 7.14064046,10.8020811 6.7947502,11.1349526 C6.44885993,11.4678241 5.97624262,11.6304831 5.5016335,11.58 L2.69649182,11.58 L2.69649182,8.15 L5.5016335,8.15 C5.9723999,8.09345575 6.4438531,8.24984215 6.79029621,8.57746411 C7.13673932,8.90508607 7.32295482,9.37063932 7.29929471,9.85" id="Shape"></path>
                    <polygon id="Rectangle-path" points="12 0 15 0 15 14 12 14"></polygon>
                    <path d="M27.8081186,3.92 C27.8081186,1.53 26.2376344,0 23.5411425,0 L18,0 L18,14 L23.7781968,14 C26.2376344,14 27.9957865,12.59 27.9957865,10 C28.0634818,8.65760043 27.3104368,7.41075412 26.0993527,6.86 C27.1592962,6.30250497 27.8198265,5.18922943 27.8081186,3.98 M25.1116268,4.1 C25.1214269,4.56419899 24.9303238,5.00954323 24.5885019,5.31908322 C24.24668,5.62862322 23.7882947,5.77142933 23.3337201,5.71 L20.6866146,5.71 L20.6866146,2.48 L23.3238428,2.48 C23.7784174,2.41857067 24.2368027,2.56137678 24.5786246,2.87091678 C24.9204465,3.18045677 25.1115497,3.62580101 25.1017495,4.09 M25.2992947,9.85 C25.3220205,10.333394 25.1352577,10.8027607 24.7879024,11.1352154 C24.4405471,11.4676701 23.9671884,11.6301075 23.4917562,11.58 L20.6866146,11.58 L20.6866146,8.15 L23.4917562,8.15 C23.9633574,8.09384954 24.4355439,8.25002608 24.783444,8.57722805 C25.131344,8.90443001 25.3199173,9.36970171 25.2992947,9.85" id="Shape"></path>
                    <polygon id="Shape" points="39 14 39 11.5630372 32.6706522 11.5630372 32.6706522 8.16332378 38.0608696 8.16332378 38.0608696 5.71633238 32.6706522 5.71633238 32.6706522 2.43696275 39 2.43696275 39 0 30 0 30 14"></polygon>
                    <path d="M51.4250707,4.27794871 C51.4413141,3.09520162 50.9881894,1.9596097 50.1762595,1.14825895 C49.3643297,0.336908197 48.2682675,-0.0755818361 47.1555137,0.0114369893 L42,0.0114369893 L42,14 L44.5730443,14 L44.5730443,8.43455029 L46.4580584,8.43455029 L49.0216777,14 L52,14 L49.0593779,8.00490157 C50.5331294,7.47464841 51.5080832,5.98710254 51.462771,4.33789969 M49.1426404,4.05313379 C49.1500973,4.568318 48.9494698,5.06253793 48.5908451,5.41241039 C48.2322203,5.76228286 47.7494418,5.93479043 47.2630362,5.88686619 L44.8571429,5.88686619 L44.8571429,2.2194014 L47.2630362,2.2194014 C47.7484842,2.16844877 48.2314605,2.33854797 48.5904814,2.68691365 C48.9495023,3.03527932 49.1503993,3.52875713 49.1426404,4.04322173" id="Shape"></path>
                </g>
            </g>
        </g>
    </g>
</svg>