<?xml version="1.0" encoding="UTF-8"?>
<svg width="18px" height="13px" viewBox="0 0 18 13" version="1.1" xmlns="http://www.w3.org/2000/svg" xmlns:xlink="http://www.w3.org/1999/xlink">
    <!-- Generator: Sketch 55 (78076) - https://sketchapp.com -->
    <title>Shape</title>
    <desc>Created with Sketch.</desc>
    <g id="Desktop" stroke="none" stroke-width="1" fill="none" fill-rule="evenodd">
        <g id="Kontakieren" transform="translate(-648.000000, -247.000000)" fill="#FFFFFF" fill-rule="nonzero">
            <g id="Group" transform="translate(618.000000, 81.000000)">
                <g id="mail-copy" transform="translate(0.000000, 147.000000)">
                    <g id="Group-6" transform="translate(30.000000, 14.000000)">
                        <path d="M17.2455308,15.8015282 C17.2455308,16.179592 17.1391881,16.5300749 16.9688337,16.8384402 L11.5237128,10.7461289 L16.9097979,6.03378429 C17.11932,6.36628281 17.2455308,6.7568575 17.2455308,7.17892271 L17.2455308,15.8015282 Z M8.62278316,11.8523129 L16.1173461,5.29475257 C15.8097983,5.12638854 15.4634738,5.02313806 15.0898883,5.02313806 L2.15567802,5.02313806 C1.78163051,5.02313806 1.43519939,5.12638854 1.12889557,5.29475257 L8.62278316,11.8523129 Z M10.7122103,11.4555894 L8.97742456,12.9744555 C8.8759512,13.0628493 8.74959821,13.1069928 8.62278316,13.1069928 C8.49589704,13.1069928 8.36954404,13.0628493 8.26807068,12.9744555 L6.532894,11.4555183 L1.01889205,17.6257028 C1.3494002,17.8330568 1.73674054,17.9572773 2.15564248,17.9572773 L15.0898883,17.9572773 C15.5087192,17.9572773 15.8962372,17.8330568 16.2266387,17.6257028 L10.7122103,11.4555894 Z M0.335803959,6.03374875 C0.12631745,6.36624727 0,6.75682196 0,7.17892271 L0,15.8015637 C0,16.1796275 0.105845067,16.5301104 0.276839229,16.8384757 L5.72132038,10.7450982 L0.335803959,6.03374875 Z" id="Shape"></path>
                    </g>
                </g>
            </g>
        </g>
    </g>
</svg>