<?xml version="1.0" encoding="UTF-8"?>
<svg width="24px" height="18px" viewBox="0 0 24 18" version="1.1" xmlns="http://www.w3.org/2000/svg" xmlns:xlink="http://www.w3.org/1999/xlink">
    <!-- Generator: Sketch 55 (78076) - https://sketchapp.com -->
    <title>Shape</title>
    <desc>Created with Sketch.</desc>
    <g id="Desktop" stroke="none" stroke-width="1" fill="none" fill-rule="evenodd">
        <g id="Footer" transform="translate(-1268.000000, -101.000000)" fill="#007589" fill-rule="nonzero">
            <g id="Group-6" transform="translate(1268.000000, 101.000000)">
                <path d="M24.0000165,14.9999176 C24.0000165,15.526056 23.852023,16.0138112 23.6149466,16.4429526 L16.0371577,7.96449103 L23.5327885,1.40648186 C23.8243732,1.8692087 24.0000165,2.41275817 24.0000165,3.0001319 L24.0000165,14.9999176 Z M12.000033,9.50392956 L22.4299603,0.377996637 C22.0019565,0.143690163 21.5199886,3.63797881e-12 21.0000824,3.63797881e-12 L2.99998351,3.63797881e-12 C2.47943436,3.63797881e-12 1.997318,0.143690163 1.57104543,0.377996637 L12.000033,9.50392956 Z M14.9078174,8.95182299 L12.4935753,11.065577 C12.3523583,11.1885916 12.1765171,11.2500247 12.000033,11.2500247 C11.8234499,11.2500247 11.6476087,11.1885916 11.5063917,11.065577 L9.09160557,8.95172406 L1.41795729,17.5385592 C1.8779142,17.8271266 2.41696253,18 2.99993405,18 L21.0000824,18 C21.582955,18 22.1222507,17.8271266 22.5820592,17.5385592 L14.9078174,8.95182299 Z M0.467326907,1.4064324 C0.175791684,1.86915924 0,2.41270871 0,3.0001319 L0,14.999967 C0,15.5261055 0.147300966,16.0138606 0.385267705,16.4430021 L7.96216626,7.9630566 L0.467326907,1.4064324 Z" id="Shape"></path>
            </g>
        </g>
    </g>
</svg>