<?xml version="1.0" encoding="UTF-8"?>
<svg width="19px" height="26px" viewBox="0 0 19 26" version="1.1" xmlns="http://www.w3.org/2000/svg" xmlns:xlink="http://www.w3.org/1999/xlink">
    <!-- Generator: Sketch 61.1 (89650) - https://sketch.com -->
    <title>pdf-file-symbol</title>
    <desc>Created with Sketch.</desc>
    <g id="Desktop" stroke="none" stroke-width="1" fill="none" fill-rule="evenodd">
        <g id="20-SERVICES" transform="translate(-974.000000, -1344.000000)" fill="#007589" fill-rule="nonzero">
            <g id="Group-4" transform="translate(390.000000, 692.000000)">
                <g id="pdf-file-symbol" transform="translate(584.000000, 652.000000)">
                    <path d="M9.73666445,11 C9.37368919,11 9.13863187,11.0267598 9,11.0532493 L9,14.9731582 C9.13863187,14.999918 9.36297526,14.999918 9.56589076,14.999918 C11.0392197,15.0085676 11.9999028,14.3330848 11.9999028,12.9023802 C12.0106168,11.6579133 11.1346711,11 9.73666445,11 Z" id="Shape"></path>
                    <path d="M3.69239766,11 C3.35121136,11 3.12096909,11.0288126 3,11.0573341 L3,12.9615832 C3.14302423,12.9903958 3.31846282,13 3.560401,13 C4.45062657,13 5,12.6076834 5,11.9473225 C5,11.3538999 4.52781955,11 3.69239766,11 Z" id="Shape"></path>
                    <path d="M13.3221903,0 L0,0 L0,26 L19,26 L19,7.71153825 L12.2500864,3.05895769 L13.3221903,0 Z M5.80318357,13.1609303 C5.31482511,13.6199164 4.59199747,13.8266028 3.74693743,13.8266028 C3.55873379,13.8266028 3.38995025,13.817195 3.25829338,13.7980943 L3.25829338,16.0571046 L1.8403403,16.0571046 L1.8403403,9.82373 C2.28157646,9.74846767 2.9013062,9.69230601 3.77463963,9.69230601 C4.65739753,9.69230601 5.28655173,9.86107608 5.70951014,10.1986162 C6.11333403,10.5173408 6.38550106,11.0421816 6.38550106,11.6608151 C6.38550106,12.2797338 6.17873409,12.8045745 5.80318357,13.1609303 Z M13.8305401,9.73934496 L17.6999955,9.73934496 L17.6999955,10.9110426 L15.2676277,10.9110426 L15.2676277,12.3544259 L17.5403508,12.3544259 L17.5403508,13.5164307 L15.2676277,13.5164307 L15.2676277,16.0571046 L13.8305401,16.0571046 L13.8305401,9.73934496 L13.8305401,9.73934496 Z M12.8923778,12.7481278 C12.8923778,13.9574566 12.4517128,14.7916141 11.8408363,15.3073322 C11.1739843,15.8603963 10.1595695,16.1232443 8.92039562,16.1232443 C8.17843347,16.1232443 7.65237716,16.0759202 7.29567557,16.0294514 L7.29567557,9.82373 C7.82173188,9.73934496 8.50714726,9.69230601 9.23054608,9.69230601 C10.4323077,9.69230601 11.2119677,9.90782996 11.8225586,10.3676714 C12.479415,10.854881 12.8923778,11.6328768 12.8923778,12.7481278 Z" id="Shape"></path>
                    <polygon id="Shape" points="14.8325115 0 14 2.44935906 19 6"></polygon>
                </g>
            </g>
        </g>
    </g>
</svg>