<?xml version="1.0" encoding="UTF-8"?>
<svg width="25px" height="25px" viewBox="0 0 25 25" version="1.1" xmlns="http://www.w3.org/2000/svg" xmlns:xlink="http://www.w3.org/1999/xlink">
    <!-- Generator: Sketch 55 (78076) - https://sketchapp.com -->
    <title>Shape</title>
    <desc>Created with Sketch.</desc>
    <g id="Desktop" stroke="none" stroke-width="1" fill="none" fill-rule="evenodd">
        <g id="Footer" transform="translate(-1267.000000, -145.000000)" fill="#007589" fill-rule="nonzero">
            <g id="Group-6" transform="translate(1267.000000, 145.000000)">
                <path d="M20.5238033,15.4165069 L17.5970279,15.4165069 L18.8423686,13.5831431 C21.1944971,10.3868398 20.8540413,5.13300222 18.1144553,2.34045567 C16.6345148,0.831263854 14.6661653,0 12.5723417,0 C10.4789269,0 8.51057743,0.831263854 7.03022822,2.34045567 C4.29064217,5.13300222 3.95018637,10.3872565 6.2929146,13.5706428 L7.54683822,15.4169236 L4.4761967,15.4169236 L0,25 L25,25 L20.5238033,15.4165069 Z M12.6446835,4.99966666 C14.2218971,4.99966666 15.5056566,6.30843847 15.5056566,7.91638194 C15.5056566,9.52432541 14.2218971,10.8330972 12.6446835,10.8330972 C11.0674699,10.8330972 9.78371044,9.52432541 9.78371044,7.91638194 C9.78371044,6.30843847 11.0670612,4.99966666 12.6446835,4.99966666 Z M4.9928067,16.2498542 L8.11290217,16.2498542 L12.5723417,22.8153803 L17.0313726,16.2498542 L20.0071933,16.2498542 L23.7052053,24.1666528 L1.29479466,24.1666528 L4.9928067,16.2498542 Z" id="Shape"></path>
            </g>
        </g>
    </g>
</svg>