<?xml version="1.0" encoding="UTF-8"?>
<svg width="16px" height="14px" viewBox="0 0 16 14" version="1.1" xmlns="http://www.w3.org/2000/svg" xmlns:xlink="http://www.w3.org/1999/xlink">
    <!-- Generator: Sketch 55 (78076) - https://sketchapp.com -->
    <title>Shape</title>
    <desc>Created with Sketch.</desc>
    <g id="Desktop" stroke="none" stroke-width="1" fill="none" fill-rule="evenodd">
        <g id="1-HOME-1" transform="translate(-1136.000000, -522.000000)" fill="#FFFFFF" fill-rule="nonzero">
            <g id="anrufen" transform="translate(1097.000000, 504.000000)">
                <g id="Group-7-Copy" transform="translate(39.000000, 14.000000)">
                    <path d="M15.4079406,14.4580565 L12.6587085,13.0844871 C11.7422978,12.621811 11.7112331,12.9254422 10.7482252,13.8797115 C10.5152394,14.1110495 10.0803326,14.7183118 9.56776395,14.6026428 C8.49602939,14.3568461 6.49235175,12.8965249 5.83999159,12.2314281 C5.52934389,11.9133384 4.1935588,10.3951827 4.17802642,9.90358939 C4.14696165,9.15174085 5.91765351,8.77581658 5.34295528,7.34441263 L4.11589688,4.78523586 C2.9665004,2.32726948 -0.248703258,6.2600157 0.0153472835,8.09626117 C0.698772216,12.621811 9.22605148,19.9378757 13.9789612,17.5232852 C15.0351634,16.9738574 16.4641428,15.0508602 15.4079406,14.4580565 Z" id="Shape"></path>
                </g>
            </g>
        </g>
    </g>
</svg>